<svg width="4381" height="1540" viewBox="0 0 4381 1540" fill="none" xmlns="http://www.w3.org/2000/svg">
<g id="TBR" clip-path="url(#clip0_59_101)">
<g id="way">
<path id="Vector" d="M6.5 1302.4H5069.62C5191.32 1302.4 5289.95 1203.78 5289.95 1082.09V758.314C5289.95 636.628 5388.59 538 5510.28 538H6428.4" stroke="#225B4A" stroke-width="5" stroke-linecap="round" stroke-linejoin="round" stroke-dasharray="8 8"/>
<path id="Vector_2" d="M0.5 1139.41H5069.79L5071.75 1139.29L5087.33 1138.45C5092.45 1137.61 5097.57 1136.81 5102.72 1136.09L5117.75 1132.3C5137.57 1126.3 5156.24 1116.63 5172.58 1103.8C5205.44 1078.27 5228.13 1040.3 5234.81 999.461C5235.45 994.306 5236.76 989.271 5236.69 984.036L5237.09 976.243L5237.32 972.327C5237.4 971.048 5237.33 969.05 5237.37 967.451V648.23L5237.49 645.153L5237.76 638.839C5238.12 622.015 5240.53 605.231 5243.96 588.726C5251.2 555.757 5264.62 524.027 5283.49 496.093C5302.31 468.079 5326.29 443.662 5353.95 424.36C5381.56 405.018 5412.9 390.872 5445.71 382.959C5449.83 382 5453.86 380.681 5458.05 380.122L5470.56 378.163C5474.72 377.564 5478.92 376.845 5483.08 376.365L5495.67 375.686L5508.3 375.086C5510.57 374.966 5512.01 375.006 5513.77 375.006H6428.4" stroke="#225B4A" stroke-width="5" stroke-linecap="round" stroke-linejoin="round"/>
<path id="Vector_3" d="M6.5 1484.37H5069.95L5073.11 1484.21C5081.5 1483.81 5089.93 1483.49 5098.32 1482.81C5106.68 1481.61 5115.03 1480.33 5123.34 1479.02C5131.57 1477.18 5139.73 1474.98 5147.92 1472.82C5180.3 1463.07 5210.75 1447.24 5237.28 1426.5C5263.82 1405.76 5286.49 1380.11 5303.79 1351.13C5321.1 1322.2 5332.93 1289.91 5338.48 1256.66C5339.64 1248.31 5341.36 1240 5341.52 1231.57L5342.15 1218.94L5342.44 1212.62C5342.52 1210.51 5342.43 1209.11 5342.47 1207.31V888.129C5342.47 887.29 5342.55 886.77 5342.59 886.091L5342.84 882.174C5343 871.744 5344.55 861.474 5346.59 851.323C5351.03 831.102 5359.14 811.68 5370.81 794.497C5393.95 759.929 5430.32 734.473 5470.56 724.962C5473.08 724.402 5475.52 723.403 5478.12 723.163L5485.79 722.044C5488.35 721.685 5490.91 721.165 5493.46 720.846L5501.26 720.526L5509.05 720.086C5510.17 719.966 5512.17 720.006 5513.77 720.006H6428.4" stroke="#225B4A" stroke-width="5" stroke-linecap="round" stroke-linejoin="round"/>
</g>
<path id="Vector_4" d="M3053.52 490C3049.27 490 3045.2 491.686 3042.2 494.687C3039.2 497.687 3037.52 501.757 3037.52 506V810H2925.52C2921.27 810 2917.2 811.686 2914.2 814.687C2911.2 817.687 2909.52 821.757 2909.52 826V885.469L2814.3 1107.69C2813.25 1110.12 2812.83 1112.77 2813.06 1115.41C2813.3 1118.05 2814.18 1120.59 2815.64 1122.8C2817.09 1125.01 2819.07 1126.82 2821.4 1128.08C2823.73 1129.34 2826.34 1130 2828.98 1130H3599.77C3602.46 1130 3605.11 1129.32 3607.47 1128.03C3609.83 1126.73 3611.82 1124.86 3613.27 1122.59C3614.72 1120.32 3615.57 1117.72 3615.74 1115.03C3615.91 1112.35 3615.41 1109.66 3614.27 1107.22L3517.52 899.938V762C3517.52 757.757 3515.83 753.687 3512.83 750.687C3509.83 747.686 3505.76 746 3501.52 746H3405.52V634C3405.52 629.757 3403.83 625.687 3400.83 622.687C3397.83 619.686 3393.76 618 3389.52 618H3277.52V506C3277.52 501.757 3275.83 497.687 3272.83 494.687C3269.83 491.686 3265.76 490 3261.52 490H3053.52ZM3069.52 522H3245.52V618H3181.52C3177.27 618 3173.2 619.686 3170.2 622.687C3167.2 625.687 3165.52 629.757 3165.52 634V810H3069.52V522ZM3101.52 554V586H3133.52V554H3101.52ZM3181.52 554V586H3213.52V554H3181.52ZM3101.52 618V650H3133.52V618H3101.52ZM3197.52 650H3373.52V746H3309.52C3305.27 746 3301.2 747.686 3298.2 750.687C3295.2 753.687 3293.52 757.757 3293.52 762V1034H3197.52V826V650ZM3101.52 682V714H3133.52V682H3101.52ZM3229.52 682V714H3261.52V682H3229.52ZM3309.52 682V714H3341.52V682H3309.52ZM3101.52 746V778H3133.52V746H3101.52ZM3229.52 746V778H3261.52V746H3229.52ZM3325.52 778H3485.52V1034H3357.52H3325.52V778ZM3229.52 810V842H3261.52V810H3229.52ZM3357.52 810V842H3389.52V810H3357.52ZM3421.52 810V842H3453.52V810H3421.52ZM2941.52 842H3165.52V1034H2941.52V842ZM2973.52 874V906H3005.52V874H2973.52ZM3037.52 874V906H3069.52V874H3037.52ZM3101.52 874V906H3133.52V874H3101.52ZM3229.52 874V906H3261.52V874H3229.52ZM3357.52 874V906H3389.52V874H3357.52ZM3421.52 874V906H3453.52V874H3421.52ZM2973.52 938V970H3005.52V938H2973.52ZM3037.52 938V970H3069.52V938H3037.52ZM3101.52 938V970H3133.52V938H3101.52ZM3229.52 938V970H3261.52V938H3229.52ZM3357.52 938V970H3389.52V938H3357.52ZM3421.52 938V970H3453.52V938H3421.52ZM2909.52 966.75V1050C2909.52 1054.24 2911.2 1058.31 2914.2 1061.31C2917.2 1064.31 2921.27 1066 2925.52 1066H3181.52H3357.52H3501.52C3505.76 1066 3509.83 1064.31 3512.83 1061.31C3515.83 1058.31 3517.52 1054.24 3517.52 1050V975.594L3574.64 1098H2853.27L2909.52 966.75Z" fill="#225B4A"/>
<g id="sun" filter="url(#filter0_d_59_101)">
<path id="Vector_5" fill-rule="evenodd" clip-rule="evenodd" d="M1924.5 191.166C1876.81 191.166 1838.16 229.824 1838.16 277.51C1838.16 325.195 1876.81 363.853 1924.5 363.853C1972.19 363.853 2010.84 325.195 2010.84 277.51C2010.84 229.824 1972.19 191.166 1924.5 191.166ZM1924.5 354.26C1882.11 354.26 1847.75 319.895 1847.75 277.51C1847.75 235.124 1882.11 200.76 1924.5 200.76C1966.89 200.76 2001.25 235.124 2001.25 277.51C2001.25 319.895 1966.89 354.26 1924.5 354.26Z" fill="#394240"/>
<path id="Vector_6" fill-rule="evenodd" clip-rule="evenodd" d="M2073.2 272.703H2025.23C2022.58 272.703 2020.44 274.847 2020.44 277.5C2020.44 280.153 2022.58 282.297 2025.23 282.297H2073.2C2075.86 282.297 2078 280.153 2078 277.5C2078 274.847 2075.86 272.703 2073.2 272.703Z" fill="#394240"/>
<path id="Vector_7" fill-rule="evenodd" clip-rule="evenodd" d="M1825.96 298.937L1807.43 303.902C1804.87 304.598 1803.35 307.226 1804.04 309.788C1804.72 312.344 1807.35 313.865 1809.91 313.17L1828.44 308.205C1831 307.519 1832.52 304.9 1831.83 302.329C1831.15 299.772 1828.51 298.251 1825.96 298.937Z" fill="#394240"/>
<path id="Vector_8" fill-rule="evenodd" clip-rule="evenodd" d="M2007.58 229.531C2008.91 231.829 2011.84 232.616 2014.14 231.282L2055.68 207.298C2057.98 205.979 2058.76 203.043 2057.43 200.75C2056.11 198.452 2053.18 197.666 2050.88 198.999L2009.34 222.984C2007.04 224.312 2006.26 227.234 2007.58 229.531Z" fill="#394240"/>
<path id="Vector_9" fill-rule="evenodd" clip-rule="evenodd" d="M1856.66 345.342C1854.79 343.467 1851.76 343.476 1849.88 345.342L1836.31 358.908C1834.44 360.783 1834.44 363.825 1836.32 365.691C1838.19 367.566 1841.22 367.566 1843.1 365.691L1856.66 352.125C1858.54 350.259 1858.54 347.213 1856.66 345.342Z" fill="#394240"/>
<path id="Vector_10" fill-rule="evenodd" clip-rule="evenodd" d="M1972.47 194.418C1974.77 195.737 1977.7 194.96 1979.03 192.658L2003.01 151.117C2004.34 148.819 2003.55 145.883 2001.25 144.564C1998.96 143.235 1996.03 144.022 1994.7 146.315L1970.72 187.866C1969.39 190.163 1970.18 193.085 1972.47 194.418Z" fill="#394240"/>
<path id="Vector_11" fill-rule="evenodd" clip-rule="evenodd" d="M1899.67 370.166C1897.12 369.48 1894.49 371.01 1893.8 373.557L1888.83 392.088C1888.14 394.654 1889.67 397.278 1892.23 397.964C1894.79 398.659 1897.41 397.139 1898.1 394.573L1903.06 376.042C1903.76 373.495 1902.24 370.862 1899.67 370.166Z" fill="#394240"/>
<path id="Vector_12" fill-rule="evenodd" clip-rule="evenodd" d="M1924.5 181.562C1927.16 181.562 1929.3 179.418 1929.31 176.766V128.797C1929.31 126.144 1927.16 124 1924.5 124C1921.86 124 1919.71 126.144 1919.71 128.797L1919.71 176.766C1919.71 179.418 1921.86 181.562 1924.5 181.562Z" fill="#394240"/>
<path id="Vector_13" fill-rule="evenodd" clip-rule="evenodd" d="M1955.21 373.557C1954.53 371.001 1951.9 369.48 1949.33 370.166C1946.78 370.852 1945.27 373.481 1945.94 376.042L1950.91 394.573C1951.6 397.139 1954.23 398.65 1956.79 397.964C1959.35 397.278 1960.87 394.659 1960.17 392.088L1955.21 373.557Z" fill="#394240"/>
<path id="Vector_14" fill-rule="evenodd" clip-rule="evenodd" d="M1869.99 192.653C1871.31 194.951 1874.25 195.737 1876.53 194.413C1878.83 193.085 1879.63 190.158 1878.3 187.856L1854.31 146.315C1852.99 144.022 1850.05 143.235 1847.75 144.564C1845.46 145.883 1844.68 148.819 1846 151.112L1869.99 192.653Z" fill="#394240"/>
<path id="Vector_15" fill-rule="evenodd" clip-rule="evenodd" d="M1999.13 345.333C1997.27 343.467 1994.23 343.467 1992.35 345.333C1990.47 347.208 1990.49 350.249 1992.35 352.115L2005.91 365.681C2007.79 367.566 2010.83 367.547 2012.7 365.681C2014.58 363.805 2014.58 360.783 2012.7 358.898L1999.13 345.333Z" fill="#394240"/>
<path id="Vector_16" fill-rule="evenodd" clip-rule="evenodd" d="M1793.32 207.298L1834.88 231.273C1837.16 232.601 1840.09 231.815 1841.41 229.531C1842.74 227.229 1841.96 224.303 1839.67 222.974L1798.12 198.99C1795.83 197.656 1792.89 198.447 1791.56 200.75C1790.25 203.038 1791.03 205.969 1793.32 207.298Z" fill="#394240"/>
<path id="Vector_17" fill-rule="evenodd" clip-rule="evenodd" d="M2020.57 308.2L2039.1 313.165C2041.66 313.86 2044.29 312.321 2044.97 309.764C2045.66 307.207 2044.15 304.583 2041.58 303.897L2023.05 298.932C2020.5 298.237 2017.87 299.758 2017.18 302.324C2016.48 304.885 2018.02 307.509 2020.57 308.2Z" fill="#394240"/>
<path id="Vector_18" fill-rule="evenodd" clip-rule="evenodd" d="M1828.56 277.5C1828.57 274.838 1826.43 272.703 1823.78 272.694L1775.8 272.703C1773.15 272.703 1771 274.838 1771 277.5C1771 280.143 1773.15 282.297 1775.8 282.297L1823.78 282.287C1826.42 282.287 1828.57 280.143 1828.56 277.5Z" fill="#394240"/>
<path id="Vector_19" fill-rule="evenodd" clip-rule="evenodd" d="M2023.05 256.053L2041.58 251.088C2044.15 250.402 2045.66 247.764 2044.97 245.203C2044.29 242.656 2041.67 241.135 2039.1 241.821L2020.57 246.786C2018.01 247.462 2016.49 250.1 2017.18 252.662C2017.85 255.219 2020.5 256.73 2023.05 256.053Z" fill="#394240"/>
<path id="Vector_20" d="M1924.5 354.25C1966.89 354.25 2001.25 319.888 2001.25 277.5C2001.25 235.112 1966.89 200.75 1924.5 200.75C1882.11 200.75 1847.75 235.112 1847.75 277.5C1847.75 319.888 1882.11 354.25 1924.5 354.25Z" fill="#F9EBB2"/>
<path id="Vector_21" fill-rule="evenodd" clip-rule="evenodd" d="M1841.42 325.469C1840.1 323.166 1837.17 322.375 1834.87 323.699L1793.32 347.693C1791.03 349.021 1790.24 351.948 1791.56 354.25C1792.89 356.538 1795.83 357.325 1798.12 356.001L1839.66 332.007C1841.95 330.688 1842.75 327.766 1841.42 325.469Z" fill="#394240"/>
<path id="Vector_22" fill-rule="evenodd" clip-rule="evenodd" d="M1992.35 209.648C1994.21 211.533 1997.25 211.514 1999.13 209.648L2012.7 196.083C2014.58 194.207 2014.57 191.175 2012.69 189.3C2010.82 187.424 2007.79 187.424 2005.91 189.3L1992.35 202.865C1990.47 204.731 1990.48 207.777 1992.35 209.648Z" fill="#394240"/>
<path id="Vector_23" fill-rule="evenodd" clip-rule="evenodd" d="M1876.53 360.582C1874.23 359.253 1871.31 360.04 1869.98 362.323L1846 403.883C1844.68 406.171 1845.45 409.102 1847.75 410.431C1850.05 411.741 1852.98 410.954 1854.31 408.671L1878.28 367.12C1879.61 364.837 1878.83 361.906 1876.53 360.582Z" fill="#394240"/>
<path id="Vector_24" fill-rule="evenodd" clip-rule="evenodd" d="M1949.34 184.824C1951.89 185.52 1954.51 183.98 1955.21 181.433L1960.18 162.903C1960.87 160.336 1959.33 157.703 1956.78 157.026C1954.23 156.331 1951.6 157.852 1950.91 160.418L1945.95 178.948C1945.24 181.495 1946.78 184.129 1949.34 184.824Z" fill="#394240"/>
<path id="Vector_25" fill-rule="evenodd" clip-rule="evenodd" d="M1924.5 373.437C1921.85 373.428 1919.71 375.572 1919.7 378.225L1919.71 426.213C1919.71 428.846 1921.84 431 1924.5 431C1927.15 431 1929.3 428.846 1929.3 426.203L1929.29 378.225C1929.29 375.582 1927.16 373.437 1924.5 373.437Z" fill="#394240"/>
<path id="Vector_26" fill-rule="evenodd" clip-rule="evenodd" d="M1893.8 181.433C1894.47 183.99 1897.11 185.51 1899.68 184.824C1902.23 184.148 1903.73 181.51 1903.07 178.948L1898.1 160.418C1897.41 157.852 1894.78 156.331 1892.22 157.026C1889.67 157.712 1888.14 160.332 1888.84 162.903L1893.8 181.433Z" fill="#394240"/>
<path id="Vector_27" fill-rule="evenodd" clip-rule="evenodd" d="M1979.01 362.338C1977.69 360.049 1974.77 359.253 1972.47 360.582C1970.17 361.901 1969.39 364.827 1970.71 367.13L1994.71 408.671C1996.03 410.968 1998.95 411.765 2001.25 410.431C2003.55 409.102 2004.33 406.167 2003.01 403.874L1979.01 362.338Z" fill="#394240"/>
<path id="Vector_28" fill-rule="evenodd" clip-rule="evenodd" d="M1849.88 209.648C1851.73 211.543 1854.78 211.524 1856.66 209.648C1858.53 207.792 1858.51 204.755 1856.66 202.865L1843.09 189.3C1841.21 187.424 1838.18 187.434 1836.3 189.309C1834.43 191.175 1834.42 194.207 1836.31 196.083L1849.88 209.648Z" fill="#394240"/>
<path id="Vector_29" fill-rule="evenodd" clip-rule="evenodd" d="M2055.68 347.693L2014.13 323.718C2011.84 322.399 2008.92 323.166 2007.59 325.478C2006.26 327.766 2007.05 330.688 2009.34 332.016L2050.9 356.001C2053.19 357.32 2056.11 356.553 2057.44 354.25C2058.75 351.948 2057.97 349.021 2055.68 347.693Z" fill="#394240"/>
<path id="Vector_30" fill-rule="evenodd" clip-rule="evenodd" d="M1828.44 246.79L1809.9 241.821C1807.33 241.135 1804.71 242.665 1804.03 245.222C1803.34 247.769 1804.85 250.402 1807.42 251.098L1825.95 256.053C1828.5 256.754 1831.13 255.219 1831.82 252.662C1832.52 250.124 1830.98 247.5 1828.44 246.79Z" fill="#394240"/>
<path id="Vector_31" fill-rule="evenodd" clip-rule="evenodd" d="M1924.5 219.947C1921.85 219.947 1919.7 222.091 1919.7 224.744C1919.7 227.397 1921.85 229.541 1924.5 229.541C1950.99 229.541 1972.47 251.016 1972.47 277.51C1972.47 280.162 1974.61 282.306 1977.27 282.306C1979.92 282.306 1982.06 280.162 1982.06 277.51C1982.06 245.721 1956.29 219.947 1924.5 219.947Z" fill="#394240"/>
</g>
<g id="Tree">
<g id="Group">
<path id="Vector_32" d="M908.234 1028.68V1074" stroke="#225B4A" stroke-width="5.263" stroke-linecap="round" stroke-linejoin="round"/>
</g>
<g id="Group_2">
<path id="Vector_33" d="M938.967 1017.62C939.953 986.394 918.338 948.96 912.137 938.91C911.385 937.697 909.615 937.697 908.861 938.91C902.66 948.96 881.047 986.394 882.033 1017.62C883.191 1053.93 937.78 1053.93 938.938 1017.62H938.967Z" fill="#225B4A"/>
<path id="Vector_34" d="M938.967 1017.62C939.953 986.394 918.338 948.96 912.137 938.91C911.385 937.697 909.615 937.697 908.861 938.91C902.66 948.96 881.047 986.394 882.033 1017.62C883.191 1053.93 937.78 1053.93 938.938 1017.62H938.967Z" stroke="#225B4A" stroke-width="5.263" stroke-linecap="round" stroke-linejoin="round"/>
</g>
</g>
<g id="Tree_2">
<g id="Group_3">
<path id="Vector_35" d="M1049.79 980.678V1015" stroke="#225B4A" stroke-width="5.263" stroke-linecap="round" stroke-linejoin="round"/>
</g>
<g id="Group_4">
<path id="Vector_36" d="M1072.98 972.299C1073.72 948.651 1057.41 920.301 1052.73 912.689C1052.17 911.77 1050.83 911.77 1050.26 912.689C1045.59 920.301 1029.28 948.651 1030.02 972.299C1030.9 999.797 1072.08 999.797 1072.95 972.299H1072.98Z" fill="#225B4A"/>
<path id="Vector_37" d="M1072.98 972.299C1073.72 948.651 1057.41 920.301 1052.73 912.689C1052.17 911.77 1050.83 911.77 1050.26 912.689C1045.59 920.301 1029.28 948.651 1030.02 972.299C1030.9 999.797 1072.08 999.797 1072.95 972.299H1072.98Z" stroke="#225B4A" stroke-width="5.263" stroke-linecap="round" stroke-linejoin="round"/>
</g>
</g>
<g id="Tree_3">
<g id="Group_5">
<path id="Vector_38" d="M1452.94 975.746C1454.65 921.334 1417.11 856.099 1406.34 838.585C1405.04 836.472 1401.96 836.472 1400.65 838.585C1389.88 856.099 1352.35 921.334 1354.06 975.746C1356.07 1039.02 1450.88 1039.02 1452.89 975.746H1452.94Z" fill="#225B4A"/>
<path id="Vector_39" d="M1452.94 975.746C1454.65 921.334 1417.11 856.099 1406.34 838.585C1405.04 836.472 1401.96 836.472 1400.65 838.585C1389.88 856.099 1352.35 921.334 1354.06 975.746C1356.07 1039.02 1450.88 1039.02 1452.89 975.746H1452.94Z" stroke="#225B4A" stroke-width="5.263" stroke-linecap="round" stroke-linejoin="round"/>
</g>
<g id="Group_6">
<path id="Vector_40" d="M1399.56 995.026V1074" stroke="#225B4A" stroke-width="5.263" stroke-linecap="round" stroke-linejoin="round"/>
</g>
</g>
<g id="Tree_4">
<g id="Group_7">
<path id="Vector_41" d="M729.922 1022.87C731.887 959.406 688.277 883.329 675.788 862.834C674.293 860.389 670.68 860.389 669.185 862.834C656.696 883.251 613.025 959.406 615.069 1022.87C617.427 1096.66 727.642 1096.66 730 1022.87H729.922Z" fill="#225B4A"/>
<path id="Vector_42" d="M729.922 1022.87C731.887 959.407 688.277 883.33 675.788 862.834C674.293 860.389 670.68 860.389 669.185 862.834C656.696 883.251 613.025 959.407 615.069 1022.87C617.427 1096.66 727.642 1096.66 730 1022.87H729.922Z" stroke="#225B4A" stroke-width="5.263" stroke-linecap="round" stroke-linejoin="round"/>
</g>
<g id="Group_8">
<path id="Vector_43" d="M671.79 1045.84V1138" stroke="#225B4A" stroke-width="5.263" stroke-linecap="round" stroke-linejoin="round"/>
</g>
</g>
<g id="Tree_5">
<g id="Group_9">
<path id="Vector_44" d="M2801.92 1014.87C2803.89 951.406 2760.28 875.329 2747.79 854.834C2746.29 852.389 2742.68 852.389 2741.18 854.834C2728.7 875.251 2685.03 951.406 2687.07 1014.87C2689.43 1088.66 2799.64 1088.66 2802 1014.87H2801.92Z" fill="#225B4A"/>
<path id="Vector_45" d="M2801.92 1014.87C2803.89 951.407 2760.28 875.33 2747.79 854.834C2746.29 852.389 2742.68 852.389 2741.18 854.834C2728.7 875.251 2685.03 951.407 2687.07 1014.87C2689.43 1088.66 2799.64 1088.66 2802 1014.87H2801.92Z" stroke="#225B4A" stroke-width="5.263" stroke-linecap="round" stroke-linejoin="round"/>
</g>
<g id="Group_10">
<path id="Vector_46" d="M2743.79 1037.84V1130" stroke="#225B4A" stroke-width="5.263" stroke-linecap="round" stroke-linejoin="round"/>
</g>
</g>
<g id="Tree_6">
<g id="Group_11">
<path id="Vector_47" d="M1639.92 1006.2C1641.92 941.827 1597.55 864.652 1584.85 843.86C1583.32 841.38 1579.65 841.38 1578.13 843.86C1565.42 864.572 1520.99 941.827 1523.07 1006.2C1525.47 1081.06 1637.6 1081.06 1640 1006.2H1639.92Z" fill="#225B4A"/>
<path id="Vector_48" d="M1639.92 1006.2C1641.92 941.828 1597.55 864.652 1584.85 843.861C1583.32 841.381 1579.65 841.381 1578.13 843.861C1565.42 864.572 1520.99 941.828 1523.07 1006.2C1525.47 1081.06 1637.6 1081.06 1640 1006.2H1639.92Z" stroke="#225B4A" stroke-width="5.263" stroke-linecap="round" stroke-linejoin="round"/>
</g>
<g id="Group_12">
<path id="Vector_49" d="M1580.78 1029.51V1123" stroke="#225B4A" stroke-width="5.263" stroke-linecap="round" stroke-linejoin="round"/>
</g>
</g>
<g id="cloud">
<g id="Group_13">
<path id="Vector_50" d="M2358.98 493.922H2287.25C2255.87 495.36 2247 484.411 2247 473.421C2247 462.431 2255.91 450.882 2275.42 450.243C2275.42 450.243 2275.94 428.583 2299.99 420.351C2317.18 414.476 2338.84 419.312 2350.83 438.254C2378.21 434.617 2393.11 447.086 2396.15 460.233C2399.75 475.819 2392.63 493.922 2358.98 493.922Z" fill="white"/>
<path id="Vector_51" d="M2358.98 493.922H2287.25C2255.87 495.36 2247 484.411 2247 473.421C2247 462.431 2255.91 450.882 2275.42 450.243C2275.42 450.243 2275.94 428.583 2299.99 420.351C2317.18 414.476 2338.84 419.312 2350.83 438.254C2378.21 434.617 2393.11 447.086 2396.15 460.233C2399.75 475.819 2392.63 493.922 2358.98 493.922Z" stroke="#225B4A" stroke-width="4" stroke-linecap="round" stroke-linejoin="round"/>
</g>
</g>
<g id="cloud_2">
<g id="Group_14">
<path id="Vector_52" d="M1289.98 540.922H1218.25C1186.87 542.36 1178 531.411 1178 520.421C1178 509.431 1186.91 497.882 1206.42 497.243C1206.42 497.243 1206.94 475.583 1230.99 467.351C1248.18 461.476 1269.84 466.312 1281.83 485.254C1309.21 481.617 1324.11 494.086 1327.15 507.233C1330.75 522.819 1323.63 540.922 1289.98 540.922Z" fill="white"/>
<path id="Vector_53" d="M1289.98 540.922H1218.25C1186.87 542.36 1178 531.411 1178 520.421C1178 509.431 1186.91 497.882 1206.42 497.243C1206.42 497.243 1206.94 475.583 1230.99 467.351C1248.18 461.476 1269.84 466.312 1281.83 485.254C1309.21 481.617 1324.11 494.086 1327.15 507.233C1330.75 522.819 1323.63 540.922 1289.98 540.922Z" stroke="#225B4A" stroke-width="4" stroke-linecap="round" stroke-linejoin="round"/>
</g>
</g>
<g id="cloud_3">
<g id="Group_15">
<path id="Vector_54" d="M1289.98 350.922H1218.25C1186.87 352.36 1178 341.411 1178 330.421C1178 319.431 1186.91 307.882 1206.42 307.243C1206.42 307.243 1206.94 285.583 1230.99 277.351C1248.18 271.476 1269.84 276.312 1281.83 295.254C1309.21 291.617 1324.11 304.086 1327.15 317.233C1330.75 332.819 1323.63 350.922 1289.98 350.922Z" fill="white"/>
<path id="Vector_55" d="M1289.98 350.922H1218.25C1186.87 352.36 1178 341.411 1178 330.421C1178 319.431 1186.91 307.882 1206.42 307.243C1206.42 307.243 1206.94 285.583 1230.99 277.351C1248.18 271.476 1269.84 276.312 1281.83 295.254C1309.21 291.617 1324.11 304.086 1327.15 317.233C1330.75 332.819 1323.63 350.922 1289.98 350.922Z" stroke="#225B4A" stroke-width="4" stroke-linecap="round" stroke-linejoin="round"/>
</g>
</g>
<g id="cloud_4">
<g id="Group_16">
<path id="Vector_56" d="M1564.98 437.922H1493.25C1461.87 439.36 1453 428.411 1453 417.421C1453 406.431 1461.91 394.882 1481.42 394.243C1481.42 394.243 1481.94 372.583 1505.99 364.351C1523.18 358.476 1544.84 363.312 1556.83 382.254C1584.21 378.617 1599.11 391.086 1602.15 404.233C1605.75 419.819 1598.63 437.922 1564.98 437.922Z" fill="white"/>
<path id="Vector_57" d="M1564.98 437.922H1493.25C1461.87 439.36 1453 428.411 1453 417.421C1453 406.431 1461.91 394.882 1481.42 394.243C1481.42 394.243 1481.94 372.583 1505.99 364.351C1523.18 358.476 1544.84 363.312 1556.83 382.254C1584.21 378.617 1599.11 391.086 1602.15 404.233C1605.75 419.819 1598.63 437.922 1564.98 437.922Z" stroke="#225B4A" stroke-width="4" stroke-linecap="round" stroke-linejoin="round"/>
</g>
</g>
<g id="cloud_5">
<g id="Group_17">
<path id="Vector_58" d="M2397.08 330.205C2397.08 313.101 2410.91 295.118 2441.28 294.159C2441.28 294.159 2442.08 260.431 2479.57 247.643C2506.35 238.531 2540.04 246.044 2558.7 275.496C2584.76 275.496 2617.61 284.648 2632.36 316.058C2676.68 316.058 2675.32 362.135 2632.36 362.135H2427.33C2409.95 362.135 2396.16 347.589 2397.04 330.245L2397.08 330.205Z" fill="white"/>
<path id="Vector_59" d="M2397.08 330.205C2397.08 313.101 2410.91 295.118 2441.28 294.159C2441.28 294.159 2442.08 260.431 2479.57 247.643C2506.35 238.531 2540.04 246.044 2558.7 275.496C2584.76 275.496 2617.61 284.648 2632.36 316.058C2676.68 316.058 2675.32 362.135 2632.36 362.135H2427.33C2409.95 362.135 2396.16 347.589 2397.04 330.245L2397.08 330.205Z" stroke="#225B4A" stroke-width="4" stroke-linecap="round" stroke-linejoin="round"/>
</g>
</g>
<g id="cloud_6">
<g id="Group_18">
<path id="Vector_60" d="M1945.08 330.205C1945.08 313.101 1958.91 295.118 1989.28 294.159C1989.28 294.159 1990.08 260.431 2027.57 247.643C2054.35 238.531 2088.04 246.044 2106.7 275.496C2132.76 275.496 2165.61 284.648 2180.36 316.058C2224.68 316.058 2223.32 362.135 2180.36 362.135H1975.33C1957.95 362.135 1944.16 347.589 1945.04 330.245L1945.08 330.205Z" fill="white"/>
<path id="Vector_61" d="M1945.08 330.205C1945.08 313.101 1958.91 295.118 1989.28 294.159C1989.28 294.159 1990.08 260.431 2027.57 247.643C2054.35 238.531 2088.04 246.044 2106.7 275.496C2132.76 275.496 2165.61 284.648 2180.36 316.058C2224.68 316.058 2223.32 362.135 2180.36 362.135H1975.33C1957.95 362.135 1944.16 347.589 1945.04 330.245L1945.08 330.205Z" stroke="#225B4A" stroke-width="4" stroke-linecap="round" stroke-linejoin="round"/>
</g>
</g>
<g id="cloud_7">
<g id="Group_19">
<path id="Vector_62" d="M1662.08 406.205C1662.08 389.101 1675.91 371.118 1706.28 370.159C1706.28 370.159 1707.08 336.431 1744.57 323.643C1771.35 314.531 1805.04 322.044 1823.7 351.496C1849.76 351.496 1882.61 360.648 1897.36 392.058C1941.68 392.058 1940.32 438.135 1897.36 438.135H1692.33C1674.95 438.135 1661.16 423.589 1662.04 406.245L1662.08 406.205Z" fill="white"/>
<path id="Vector_63" d="M1662.08 406.205C1662.08 389.101 1675.91 371.118 1706.28 370.159C1706.28 370.159 1707.08 336.431 1744.57 323.643C1771.35 314.531 1805.04 322.044 1823.7 351.496C1849.76 351.496 1882.61 360.648 1897.36 392.058C1941.68 392.058 1940.32 438.135 1897.36 438.135H1692.33C1674.95 438.135 1661.16 423.589 1662.04 406.245L1662.08 406.205Z" stroke="#225B4A" stroke-width="4" stroke-linecap="round" stroke-linejoin="round"/>
</g>
</g>
<g id="cloud_8">
<g id="Group_20">
<path id="Vector_64" d="M1394.08 509.205C1394.08 492.101 1407.91 474.118 1438.28 473.159C1438.28 473.159 1439.08 439.431 1476.57 426.643C1503.35 417.531 1537.04 425.044 1555.7 454.496C1581.76 454.496 1614.61 463.648 1629.36 495.058C1673.68 495.058 1672.32 541.135 1629.36 541.135H1424.33C1406.95 541.135 1393.16 526.589 1394.04 509.245L1394.08 509.205Z" fill="white"/>
<path id="Vector_65" d="M1394.08 509.205C1394.08 492.101 1407.91 474.118 1438.28 473.159C1438.28 473.159 1439.08 439.431 1476.57 426.643C1503.35 417.531 1537.04 425.044 1555.7 454.496C1581.76 454.496 1614.61 463.648 1629.36 495.058C1673.68 495.058 1672.32 541.135 1629.36 541.135H1424.33C1406.95 541.135 1393.16 526.589 1394.04 509.245L1394.08 509.205Z" stroke="#225B4A" stroke-width="4" stroke-linecap="round" stroke-linejoin="round"/>
</g>
</g>
<g id="cloud_9">
<g id="Group_21">
<path id="Vector_66" d="M2743.08 437.205C2743.08 420.101 2756.91 402.118 2787.28 401.159C2787.28 401.159 2788.08 367.431 2825.57 354.643C2852.35 345.531 2886.04 353.044 2904.7 382.496C2930.76 382.496 2963.61 391.648 2978.36 423.058C3022.68 423.058 3021.32 469.135 2978.36 469.135H2773.33C2755.95 469.135 2742.16 454.589 2743.04 437.245L2743.08 437.205Z" fill="white"/>
<path id="Vector_67" d="M2743.08 437.205C2743.08 420.101 2756.91 402.118 2787.28 401.159C2787.28 401.159 2788.08 367.431 2825.57 354.643C2852.35 345.531 2886.04 353.044 2904.7 382.496C2930.76 382.496 2963.61 391.648 2978.36 423.058C3022.68 423.058 3021.32 469.135 2978.36 469.135H2773.33C2755.95 469.135 2742.16 454.589 2743.04 437.245L2743.08 437.205Z" stroke="#225B4A" stroke-width="4" stroke-linecap="round" stroke-linejoin="round"/>
</g>
</g>
<g id="cloud_10">
<g id="Group_22">
<path id="Vector_68" d="M3099.08 406.205C3099.08 389.101 3112.91 371.118 3143.28 370.159C3143.28 370.159 3144.08 336.431 3181.57 323.643C3208.35 314.531 3242.04 322.044 3260.7 351.496C3286.76 351.496 3319.61 360.648 3334.36 392.058C3378.68 392.058 3377.32 438.135 3334.36 438.135H3129.33C3111.95 438.135 3098.16 423.589 3099.04 406.245L3099.08 406.205Z" fill="white"/>
<path id="Vector_69" d="M3099.08 406.205C3099.08 389.101 3112.91 371.118 3143.28 370.159C3143.28 370.159 3144.08 336.431 3181.57 323.643C3208.35 314.531 3242.04 322.044 3260.7 351.496C3286.76 351.496 3319.61 360.648 3334.36 392.058C3378.68 392.058 3377.32 438.135 3334.36 438.135H3129.33C3111.95 438.135 3098.16 423.589 3099.04 406.245L3099.08 406.205Z" stroke="#225B4A" stroke-width="4" stroke-linecap="round" stroke-linejoin="round"/>
</g>
</g>
<g id="cloud_11">
<g id="Group_23">
<path id="Vector_70" d="M2988.98 312.922H2917.25C2885.87 314.36 2877 303.411 2877 292.421C2877 281.431 2885.91 269.882 2905.42 269.243C2905.42 269.243 2905.94 247.583 2929.99 239.351C2947.18 233.476 2968.84 238.312 2980.83 257.254C3008.21 253.617 3023.11 266.086 3026.15 279.233C3029.75 294.819 3022.63 312.922 2988.98 312.922Z" fill="white"/>
<path id="Vector_71" d="M2988.98 312.922H2917.25C2885.87 314.36 2877 303.411 2877 292.421C2877 281.431 2885.91 269.882 2905.42 269.243C2905.42 269.243 2905.94 247.583 2929.99 239.351C2947.18 233.476 2968.84 238.312 2980.83 257.254C3008.21 253.617 3023.11 266.086 3026.15 279.233C3029.75 294.819 3022.63 312.922 2988.98 312.922Z" stroke="#225B4A" stroke-width="4" stroke-linecap="round" stroke-linejoin="round"/>
</g>
</g>
<g id="cloud_12">
<g id="Group_24">
<path id="Vector_72" d="M1842.81 291.514H1921.72C1956.23 293.097 1965.99 281.052 1965.99 268.963C1965.99 256.874 1956.19 244.17 1934.74 243.467C1934.74 243.467 1934.16 219.641 1907.7 210.586C1888.8 204.124 1864.97 209.443 1851.78 230.279C1821.67 226.279 1805.27 239.994 1801.93 254.457C1797.97 271.601 1805.8 291.514 1842.81 291.514Z" fill="white"/>
<path id="Vector_73" d="M1842.81 291.514H1921.72C1956.23 293.097 1965.99 281.052 1965.99 268.963C1965.99 256.874 1956.19 244.17 1934.74 243.467C1934.74 243.467 1934.16 219.641 1907.7 210.586C1888.8 204.124 1864.97 209.443 1851.78 230.279C1821.67 226.279 1805.27 239.994 1801.93 254.457C1797.97 271.601 1805.8 291.514 1842.81 291.514Z" stroke="#225B4A" stroke-width="4" stroke-linecap="round" stroke-linejoin="round"/>
</g>
</g>
<g id="building">
<g id="city 1">
<g id="Group_25">
<g id="Group_26">
<path id="Vector_74" d="M2620.85 487.87H2471.94C2464.12 487.87 2457.79 494.202 2457.79 502.013V762.366H2360.72V646.802V434.143C2360.72 426.332 2354.39 420 2346.58 420H2261.48C2253.66 420 2247.33 426.332 2247.33 434.143V632.658H2216.07V554.362C2216.07 546.551 2209.73 540.219 2201.92 540.219C2194.11 540.219 2187.77 546.551 2187.77 554.362V632.658H2172.47C2164.66 632.658 2158.32 638.99 2158.32 646.801V715.609H2085.91V663.267C2085.91 655.456 2079.58 649.124 2071.76 649.124C2063.95 649.124 2057.62 655.456 2057.62 663.267V715.61H2029.15C2021.33 715.61 2015 721.942 2015 729.753V1115.86C2015 1123.67 2021.33 1130 2029.15 1130H2620.85C2628.67 1130 2635 1123.67 2635 1115.86V502.013C2635 494.202 2628.67 487.87 2620.85 487.87ZM2158.32 1101.72H2043.29V743.898H2158.32V1101.72ZM2332.43 1101.72H2186.61V660.946H2332.43V1101.72H2332.43ZM2332.43 632.658H2275.62V448.286H2332.43V632.658ZM2457.78 1101.72H2360.72V790.651H2457.78V1101.72ZM2606.71 1101.72H2486.08V516.157H2606.71V1101.72Z" fill="#225B4A"/>
</g>
</g>
<g id="Group_27">
<g id="Group_28">
<path id="Vector_75" d="M2243.66 703.467C2236.08 703.467 2229.94 709.69 2229.94 717.367V735.823C2229.94 743.5 2236.08 749.723 2243.66 749.723C2251.24 749.723 2257.39 743.5 2257.39 735.823V717.367C2257.39 709.691 2251.24 703.467 2243.66 703.467Z" fill="#225B4A"/>
</g>
</g>
<g id="Group_29">
<g id="Group_30">
<path id="Vector_76" d="M2302.21 703.467C2294.63 703.467 2288.48 709.69 2288.48 717.367V735.823C2288.48 743.5 2294.63 749.723 2302.21 749.723C2309.78 749.723 2315.93 743.5 2315.93 735.823V717.367C2315.93 709.691 2309.78 703.467 2302.21 703.467Z" fill="#225B4A"/>
</g>
</g>
<g id="Group_31">
<g id="Group_32">
<path id="Vector_77" d="M2316.84 575.993C2309.26 575.993 2303.12 582.215 2303.12 589.892V608.348C2303.12 616.025 2309.26 622.248 2316.84 622.248C2324.42 622.248 2330.56 616.025 2330.56 608.348V589.892C2330.57 582.215 2324.42 575.993 2316.84 575.993Z" fill="#225B4A"/>
</g>
</g>
<g id="Group_33">
<g id="Group_34">
<path id="Vector_78" d="M2316.84 503.361C2309.26 503.361 2303.12 509.584 2303.12 517.261V535.717C2303.12 543.394 2309.26 549.617 2316.84 549.617C2324.42 549.617 2330.56 543.394 2330.56 535.717V517.261C2330.57 509.584 2324.42 503.361 2316.84 503.361Z" fill="#225B4A"/>
</g>
</g>
<g id="Group_35">
<g id="Group_36">
<path id="Vector_79" d="M2243.66 784.393C2236.08 784.393 2229.94 790.616 2229.94 798.293V816.749C2229.94 824.426 2236.08 830.649 2243.66 830.649C2251.24 830.649 2257.39 824.426 2257.39 816.749V798.293C2257.39 790.616 2251.24 784.393 2243.66 784.393Z" fill="#225B4A"/>
</g>
</g>
<g id="Group_37">
<g id="Group_38">
<path id="Vector_80" d="M2302.21 784.393C2294.63 784.393 2288.48 790.616 2288.48 798.293V816.749C2288.48 824.426 2294.63 830.649 2302.21 830.649C2309.78 830.649 2315.93 824.426 2315.93 816.749V798.293C2315.93 790.616 2309.78 784.393 2302.21 784.393Z" fill="#225B4A"/>
</g>
</g>
<g id="Group_39">
<g id="Group_40">
<path id="Vector_81" d="M2243.66 859.637C2236.08 859.637 2229.94 865.86 2229.94 873.537V891.994C2229.94 899.671 2236.08 905.894 2243.66 905.894C2251.24 905.894 2257.39 899.671 2257.39 891.994V873.538C2257.39 865.861 2251.24 859.637 2243.66 859.637Z" fill="#225B4A"/>
</g>
</g>
<g id="Group_41">
<g id="Group_42">
<path id="Vector_82" d="M2302.21 859.637C2294.63 859.637 2288.48 865.86 2288.48 873.537V891.994C2288.48 899.671 2294.63 905.894 2302.21 905.894C2309.78 905.894 2315.93 899.671 2315.93 891.994V873.538C2315.93 865.861 2309.78 859.637 2302.21 859.637Z" fill="#225B4A"/>
</g>
</g>
<g id="Group_43">
<g id="Group_44">
<path id="Vector_83" d="M2243.66 940.563C2236.08 940.563 2229.94 946.785 2229.94 954.463V972.92C2229.94 980.597 2236.08 986.82 2243.66 986.82C2251.24 986.82 2257.39 980.597 2257.39 972.92V954.463C2257.39 946.785 2251.24 940.563 2243.66 940.563Z" fill="#225B4A"/>
</g>
</g>
<g id="Group_45">
<g id="Group_46">
<path id="Vector_84" d="M2302.21 940.563C2294.63 940.563 2288.48 946.785 2288.48 954.463V972.92C2288.48 980.597 2294.63 986.82 2302.21 986.82C2309.78 986.82 2315.93 980.597 2315.93 972.92V954.463C2315.93 946.785 2309.78 940.563 2302.21 940.563Z" fill="#225B4A"/>
</g>
</g>
<g id="Group_47">
<g id="Group_48">
<path id="Vector_85" d="M2243.66 1021.49C2236.08 1021.49 2229.94 1027.71 2229.94 1035.39V1053.84C2229.94 1061.52 2236.08 1067.74 2243.66 1067.74C2251.24 1067.74 2257.39 1061.52 2257.39 1053.84V1035.39C2257.39 1027.71 2251.24 1021.49 2243.66 1021.49Z" fill="#225B4A"/>
</g>
</g>
<g id="Group_49">
<g id="Group_50">
<path id="Vector_86" d="M2302.21 1021.49C2294.63 1021.49 2288.48 1027.71 2288.48 1035.39V1053.84C2288.48 1061.52 2294.63 1067.74 2302.21 1067.74C2309.78 1067.74 2315.93 1061.52 2315.93 1053.84V1035.39C2315.93 1027.71 2309.78 1021.49 2302.21 1021.49Z" fill="#225B4A"/>
</g>
</g>
<g id="Group_51">
<g id="Group_52">
<path id="Vector_87" d="M2529.06 703.467C2521.48 703.467 2515.33 709.69 2515.33 717.367V735.823C2515.33 743.5 2521.48 749.723 2529.06 749.723C2536.64 749.723 2542.78 743.5 2542.78 735.823V717.367C2542.78 709.691 2536.64 703.467 2529.06 703.467Z" fill="#225B4A"/>
</g>
</g>
<g id="Group_53">
<g id="Group_54">
<path id="Vector_88" d="M2580.28 703.467C2572.7 703.467 2566.56 709.69 2566.56 717.367V735.823C2566.56 743.5 2572.7 749.723 2580.28 749.723C2587.86 749.723 2594 743.5 2594 735.823V717.367C2594 709.691 2587.86 703.467 2580.28 703.467Z" fill="#225B4A"/>
</g>
</g>
<g id="Group_55">
<g id="Group_56">
<path id="Vector_89" d="M2529.06 784.393C2521.48 784.393 2515.33 790.616 2515.33 798.293V816.749C2515.33 824.426 2521.48 830.649 2529.06 830.649C2536.64 830.649 2542.78 824.426 2542.78 816.749V798.293C2542.78 790.616 2536.64 784.393 2529.06 784.393Z" fill="#225B4A"/>
</g>
</g>
<g id="Group_57">
<g id="Group_58">
<path id="Vector_90" d="M2580.28 784.393C2572.7 784.393 2566.56 790.616 2566.56 798.293V816.749C2566.56 824.426 2572.7 830.649 2580.28 830.649C2587.86 830.649 2594 824.426 2594 816.749V798.293C2594 790.616 2587.86 784.393 2580.28 784.393Z" fill="#225B4A"/>
</g>
</g>
<g id="Group_59">
<g id="Group_60">
<path id="Vector_91" d="M2529.06 859.637C2521.48 859.637 2515.33 865.86 2515.33 873.537V891.994C2515.33 899.671 2521.48 905.894 2529.06 905.894C2536.64 905.894 2542.78 899.671 2542.78 891.994V873.538C2542.78 865.861 2536.64 859.637 2529.06 859.637Z" fill="#225B4A"/>
</g>
</g>
<g id="Group_61">
<g id="Group_62">
<path id="Vector_92" d="M2580.28 859.637C2572.7 859.637 2566.56 865.86 2566.56 873.537V891.994C2566.56 899.671 2572.7 905.894 2580.28 905.894C2587.86 905.894 2594 899.671 2594 891.994V873.538C2594 865.861 2587.86 859.637 2580.28 859.637Z" fill="#225B4A"/>
</g>
</g>
<g id="Group_63">
<g id="Group_64">
<path id="Vector_93" d="M2529.06 548.993C2521.48 548.993 2515.33 555.216 2515.33 562.893V581.35C2515.33 589.027 2521.48 595.25 2529.06 595.25C2536.64 595.25 2542.78 589.027 2542.78 581.35V562.893C2542.78 555.216 2536.64 548.993 2529.06 548.993Z" fill="#225B4A"/>
</g>
</g>
<g id="Group_65">
<g id="Group_66">
<path id="Vector_94" d="M2580.28 548.993C2572.7 548.993 2566.56 555.216 2566.56 562.893V581.35C2566.56 589.027 2572.7 595.25 2580.28 595.25C2587.86 595.25 2594 589.027 2594 581.35V562.893C2594 555.216 2587.86 548.993 2580.28 548.993Z" fill="#225B4A"/>
</g>
</g>
<g id="Group_67">
<g id="Group_68">
<path id="Vector_95" d="M2529.06 624.238C2521.48 624.238 2515.33 630.461 2515.33 638.138V656.594C2515.33 664.271 2521.48 670.494 2529.06 670.494C2536.64 670.494 2542.78 664.271 2542.78 656.594V638.138C2542.78 630.461 2536.64 624.238 2529.06 624.238Z" fill="#225B4A"/>
</g>
</g>
<g id="Group_69">
<g id="Group_70">
<path id="Vector_96" d="M2580.28 624.238C2572.7 624.238 2566.56 630.461 2566.56 638.138V656.594C2566.56 664.271 2572.7 670.494 2580.28 670.494C2587.86 670.494 2594 664.271 2594 656.594V638.138C2594 630.461 2587.86 624.238 2580.28 624.238Z" fill="#225B4A"/>
</g>
</g>
<g id="Group_71">
<g id="Group_72">
<path id="Vector_97" d="M2529.06 940.563C2521.48 940.563 2515.33 946.785 2515.33 954.463V972.92C2515.33 980.597 2521.48 986.82 2529.06 986.82C2536.64 986.82 2542.78 980.597 2542.78 972.92V954.463C2542.78 946.785 2536.64 940.563 2529.06 940.563Z" fill="#225B4A"/>
</g>
</g>
<g id="Group_73">
<g id="Group_74">
<path id="Vector_98" d="M2580.28 940.563C2572.7 940.563 2566.56 946.785 2566.56 954.463V972.92C2566.56 980.597 2572.7 986.82 2580.28 986.82C2587.86 986.82 2594 980.597 2594 972.92V954.463C2594 946.785 2587.86 940.563 2580.28 940.563Z" fill="#225B4A"/>
</g>
</g>
<g id="Group_75">
<g id="Group_76">
<path id="Vector_99" d="M2529.06 1021.49C2521.48 1021.49 2515.33 1027.71 2515.33 1035.39V1053.84C2515.33 1061.52 2521.48 1067.74 2529.06 1067.74C2536.64 1067.74 2542.78 1061.52 2542.78 1053.84V1035.39C2542.78 1027.71 2536.64 1021.49 2529.06 1021.49Z" fill="#225B4A"/>
</g>
</g>
<g id="Group_77">
<g id="Group_78">
<path id="Vector_100" d="M2580.28 1021.49C2572.7 1021.49 2566.56 1027.71 2566.56 1035.39V1053.84C2566.56 1061.52 2572.7 1067.74 2580.28 1067.74C2587.86 1067.74 2594 1061.52 2594 1053.84V1035.39C2594 1027.71 2587.86 1021.49 2580.28 1021.49Z" fill="#225B4A"/>
</g>
</g>
<g id="Group_79">
<g id="Group_80">
<path id="Vector_101" d="M2145.6 777.581H2095.85C2088.27 777.581 2082.12 783.804 2082.12 791.481C2082.12 799.158 2088.27 805.381 2095.85 805.381H2145.61C2153.18 805.381 2159.33 799.158 2159.33 791.481C2159.33 783.804 2153.18 777.581 2145.6 777.581Z" fill="#225B4A"/>
</g>
</g>
<g id="Group_81">
<g id="Group_82">
<path id="Vector_102" d="M2145.6 831.434H2095.85C2088.27 831.434 2082.12 837.657 2082.12 845.334C2082.12 853.011 2088.27 859.233 2095.85 859.233H2145.61C2153.18 859.233 2159.33 853.011 2159.33 845.334C2159.33 837.657 2153.18 831.434 2145.6 831.434Z" fill="#225B4A"/>
</g>
</g>
<g id="Group_83">
<g id="Group_84">
<path id="Vector_103" d="M2145.6 887.025H2095.85C2088.27 887.025 2082.12 893.248 2082.12 900.925C2082.12 908.602 2088.27 914.825 2095.85 914.825H2145.61C2153.18 914.825 2159.33 908.602 2159.33 900.925C2159.33 893.248 2153.18 887.025 2145.6 887.025Z" fill="#225B4A"/>
</g>
</g>
<g id="Group_85">
<g id="Group_86">
<path id="Vector_104" d="M2145.6 940.877H2095.85C2088.27 940.877 2082.12 947.1 2082.12 954.777C2082.12 962.454 2088.27 968.677 2095.85 968.677H2145.61C2153.18 968.677 2159.33 962.454 2159.33 954.777C2159.33 947.1 2153.18 940.877 2145.6 940.877Z" fill="#225B4A"/>
</g>
</g>
<g id="Group_87">
<g id="Group_88">
<path id="Vector_105" d="M2145.6 996.468H2095.85C2088.27 996.468 2082.12 1002.69 2082.12 1010.37C2082.12 1018.04 2088.27 1024.27 2095.85 1024.27H2145.61C2153.18 1024.27 2159.33 1018.04 2159.33 1010.37C2159.33 1002.69 2153.18 996.468 2145.6 996.468Z" fill="#225B4A"/>
</g>
</g>
<g id="Group_89">
<g id="Group_90">
<path id="Vector_106" d="M2145.6 1050.32H2095.85C2088.27 1050.32 2082.12 1056.54 2082.12 1064.22C2082.12 1071.9 2088.27 1078.12 2095.85 1078.12H2145.61C2153.18 1078.12 2159.33 1071.9 2159.33 1064.22C2159.33 1056.54 2153.18 1050.32 2145.6 1050.32Z" fill="#225B4A"/>
</g>
</g>
<g id="Group_91">
<g id="Group_92">
<path id="Vector_107" d="M2435.39 816.12H2400.26C2392.68 816.12 2386.54 822.343 2386.54 830.02C2386.54 837.697 2392.68 843.92 2400.26 843.92H2435.39C2442.97 843.92 2449.11 837.697 2449.11 830.02C2449.11 822.343 2442.97 816.12 2435.39 816.12Z" fill="#225B4A"/>
</g>
</g>
<g id="Group_93">
<g id="Group_94">
<path id="Vector_108" d="M2435.39 881.341H2400.26C2392.68 881.341 2386.54 887.563 2386.54 895.24C2386.54 902.918 2392.68 909.14 2400.26 909.14H2435.39C2442.97 909.14 2449.11 902.918 2449.11 895.24C2449.11 887.565 2442.97 881.341 2435.39 881.341Z" fill="#225B4A"/>
</g>
</g>
<g id="Group_95">
<g id="Group_96">
<path id="Vector_109" d="M2435.39 948.042H2400.26C2392.68 948.042 2386.54 954.265 2386.54 961.942C2386.54 969.619 2392.68 975.842 2400.26 975.842H2435.39C2442.97 975.842 2449.11 969.619 2449.11 961.942C2449.11 954.266 2442.97 948.042 2435.39 948.042Z" fill="#225B4A"/>
</g>
</g>
<g id="Group_97">
<g id="Group_98">
<path id="Vector_110" d="M2435.39 1016.23H2400.26C2392.68 1016.23 2386.54 1022.45 2386.54 1030.13C2386.54 1037.8 2392.68 1044.03 2400.26 1044.03H2435.39C2442.97 1044.03 2449.11 1037.8 2449.11 1030.13C2449.11 1022.45 2442.97 1016.23 2435.39 1016.23Z" fill="#225B4A"/>
</g>
</g>
<g id="Group_99">
<g id="Group_100">
<path id="Vector_111" d="M2218.08 491.983C2210.5 491.983 2204.36 498.205 2204.36 505.883V522.563C2204.36 530.24 2210.5 536.463 2218.08 536.463C2225.66 536.463 2231.81 530.24 2231.81 522.563V505.883C2231.81 498.205 2225.66 491.983 2218.08 491.983Z" fill="#225B4A"/>
</g>
</g>
</g>
</g>
<g id="car">
<path id="Vector_112" d="M4043.55 1188.62C4068.98 1188.62 4191.66 1188.48 4234.18 1188.48L4354.19 1178.35C4360.02 1177.75 4365.81 1176.82 4371.54 1175.57C4379.34 1171.04 4378.23 1148.02 4376.35 1137.42C4371.41 1109.49 4360.83 1094.29 4349.86 1086.9C4343.23 1082.43 4338.37 1075.93 4334.66 1068.84C4326.51 1053.25 4318.03 1036.3 4308.39 1015.39C4302.63 1002.91 4289.8 995.396 4276.05 995.253C4221.14 994.682 4120 994.489 4081.78 995.31C4075.09 995.539 4068.53 997.115 4062.47 999.945C4056.41 1002.78 4050.98 1006.8 4046.52 1011.78C4035.28 1024.04 4023.58 1037.47 4014.86 1047.05C4009.52 1052.89 4002.45 1056.87 3994.68 1058.38C3964.08 1064.37 3931.58 1071.88 3905.73 1080.56C3895.07 1084.15 3883.47 1088.8 3878.46 1098.88C3872.94 1110.01 3878.01 1123.1 3882.21 1134.79C3884.71 1141.76 3886.82 1147.63 3889.45 1154.04C3889.7 1154.02 3889.94 1154 3890.17 1153.99C3893.29 1153.87 3896.41 1153.99 3899.35 1153.99C3900.89 1153.99 3904.09 1153.82 3906.38 1153.61C3911.85 1144.33 3919.83 1136.78 3929.4 1131.84C3941.25 1125.44 3953.11 1124.59 3966.39 1125.48C3995.1 1127.41 4011.47 1143.4 4020.65 1169.42C4022.84 1176.54 4025.63 1182.89 4028.83 1185.49C4033.58 1189.35 4036.23 1188.63 4043.55 1188.63" fill="white"/>
<path id="Vector_113" d="M4025.56 1075.5C4036.8 1062.02 4056.07 1038.55 4066.47 1025.69C4068.5 1023.19 4071.06 1021.17 4073.97 1019.78C4076.88 1018.4 4080.07 1017.68 4083.29 1017.69C4102.62 1017.73 4142.44 1017.82 4158.12 1017.85C4159.74 1017.85 4161.29 1018.49 4162.44 1019.63C4163.59 1020.77 4164.24 1022.32 4164.25 1023.94C4164.37 1035.44 4164.68 1057.73 4164.76 1072.82C4164.77 1073.63 4164.61 1074.43 4164.3 1075.19C4163.99 1075.94 4163.54 1076.62 4162.97 1077.2C4162.39 1077.77 4161.71 1078.23 4160.96 1078.54C4160.21 1078.85 4159.4 1079.01 4158.59 1079.01C4125.32 1079.03 4059.03 1079.17 4041.63 1079.17L4025.56 1075.5Z" fill="#225B4A"/>
<path id="Vector_114" d="M4286.83 1031.56C4285.19 1027.7 4283.69 1024.23 4282.43 1021.47C4281.94 1020.39 4281.15 1019.47 4280.15 1018.83C4279.16 1018.19 4278 1017.84 4276.81 1017.84C4257.25 1017.88 4214.28 1018.11 4197.47 1018.18C4195.85 1018.19 4194.29 1018.84 4193.14 1019.99C4191.99 1021.14 4191.34 1022.7 4191.34 1024.32C4191.3 1035.32 4191.22 1057.69 4191.19 1071.2C4191.19 1072.09 4191.36 1072.97 4191.7 1073.79C4192.05 1074.61 4192.55 1075.36 4193.18 1075.98C4193.81 1076.61 4194.55 1077.1 4195.38 1077.44C4196.2 1077.77 4197.08 1077.94 4197.97 1077.93C4217.32 1077.78 4271.59 1077.28 4296.56 1077.15C4297.58 1077.15 4298.58 1076.89 4299.47 1076.41C4300.36 1075.92 4301.12 1075.22 4301.68 1074.37C4302.24 1073.53 4302.58 1072.55 4302.67 1071.54C4302.76 1070.53 4302.6 1069.51 4302.2 1068.57C4297.72 1058.01 4291.68 1043.02 4286.83 1031.56Z" fill="#225B4A"/>
<path id="Vector_115" d="M4087.15 930.625C4086.09 945.706 4085.31 962.914 4085 977.617C4084.99 978.293 4085.13 978.964 4085.41 979.589C4085.68 980.215 4086.09 980.783 4086.61 981.26C4087.12 981.738 4087.74 982.115 4088.42 982.369C4089.09 982.624 4089.82 982.751 4090.55 982.743C4143.39 982.467 4224.01 983.217 4276.54 982.936C4277.26 982.938 4277.98 982.806 4278.64 982.55C4279.31 982.293 4279.91 981.916 4280.42 981.441C4280.93 980.966 4281.33 980.401 4281.6 979.781C4281.87 979.161 4282 978.498 4281.99 977.829C4281.58 963.491 4280.33 942.526 4279.08 930.664C4279.01 929.339 4278.4 928.087 4277.39 927.15C4276.37 926.213 4275.02 925.657 4273.58 925.589C4234.39 923.857 4140.34 923.153 4092.65 925.497C4091.21 925.56 4089.84 926.122 4088.82 927.071C4087.8 928.02 4087.21 929.288 4087.15 930.625Z" fill="#3B7564"/>
<path id="Vector_116" d="M4285.82 992.792C4285.72 989.426 4284.32 986.229 4281.92 983.869C4279.52 981.508 4276.29 980.165 4272.93 980.12C4272.29 980.108 4271.65 980.12 4271.01 980.12H4088.62C4084.1 980.12 4079.9 980.142 4076.18 983.41C4074.8 984.654 4073.71 986.178 4072.97 987.879C4072.23 989.58 4071.86 991.419 4071.89 993.274C4071.92 997.288 4078.16 997.297 4078.14 993.274C4078.11 992.368 4078.27 991.466 4078.6 990.623C4078.93 989.78 4079.43 989.012 4080.07 988.367C4080.71 987.721 4081.47 987.211 4082.3 986.866C4083.14 986.522 4084.04 986.35 4084.95 986.362C4085.77 986.351 4086.59 986.362 4087.41 986.362H4268.02C4270.31 986.362 4273.42 985.939 4275.57 986.882C4276.73 987.393 4277.71 988.218 4278.42 989.264C4279.13 990.31 4279.53 991.534 4279.58 992.796C4279.76 996.798 4286 996.82 4285.82 992.796V992.792Z" fill="#225B4A"/>
<path id="Vector_117" d="M4095 983.096L4107 982.836V920.003C4107 919.2 4106.83 918.405 4106.52 917.665C4106.21 916.926 4105.75 916.256 4105.18 915.697C4104.6 915.137 4103.92 914.699 4103.17 914.408C4102.42 914.117 4101.62 913.979 4100.82 914.003C4099.26 914.048 4097.78 914.7 4096.69 915.82C4095.6 916.939 4094.99 918.439 4095 920V983.096Z" fill="#225B4A"/>
<path id="Vector_118" d="M4259 986.096L4271 985.836V923.003C4271 922.2 4270.84 921.405 4270.52 920.665C4270.21 919.926 4269.75 919.256 4269.18 918.697C4268.6 918.137 4267.92 917.699 4267.17 917.408C4266.42 917.117 4265.62 916.979 4264.82 917.003C4263.26 917.048 4261.78 917.7 4260.69 918.819C4259.6 919.939 4259 921.439 4259 923V986.096Z" fill="#225B4A"/>
<path id="Vector_119" d="M4081.23 933.24C4080.53 942.605 4079.98 951.977 4079.59 961.356C4079.39 965.965 4079.23 970.574 4079.11 975.183C4078.81 977.256 4079.11 979.359 4079.97 981.31C4080.51 982.247 4081.26 983.081 4082.18 983.762C4083.1 984.444 4084.16 984.959 4085.32 985.278C4087.31 985.67 4089.37 985.791 4091.41 985.637L4097.71 985.615C4101.95 985.603 4106.18 985.596 4110.42 985.594C4119.5 985.588 4128.59 985.595 4137.67 985.616C4175.84 985.69 4214.02 985.91 4252.19 985.894C4260.44 985.894 4268.78 986.169 4277.02 985.833C4279.39 985.798 4281.66 984.962 4283.33 983.504C4285.01 982.046 4285.96 980.081 4285.98 978.026C4286.06 974.199 4285.7 970.33 4285.5 966.512C4285.09 958.364 4284.57 950.227 4283.88 942.096C4283.74 940.404 4283.58 938.712 4283.42 937.021C4283.36 935.228 4283.13 933.441 4282.75 931.678C4281.59 927.647 4277.66 925.652 4273.11 925.469C4243.55 924.284 4213.91 924.082 4184.32 924.01C4167.23 923.968 4150.14 924.056 4133.06 924.273C4125.32 924.382 4117.59 924.534 4109.86 924.731C4103.19 924.908 4096.39 924.864 4089.75 925.457C4087.49 925.656 4085.38 926.552 4083.82 927.981C4082.25 929.41 4081.33 931.278 4081.22 933.245C4081.23 934.029 4081.59 934.78 4082.23 935.334C4082.87 935.889 4083.74 936.203 4084.65 936.207C4085.55 936.19 4086.41 935.873 4087.05 935.321C4087.69 934.769 4088.06 934.025 4088.08 933.245C4088.37 930.752 4092.24 931.252 4094.32 931.168C4097.51 931.038 4100.7 930.925 4103.89 930.829C4111.04 930.606 4118.2 930.437 4125.36 930.32C4141.35 930.041 4157.35 929.935 4173.35 929.926C4203.16 929.909 4232.99 930.138 4262.78 931.037C4265.5 931.119 4268.22 931.211 4270.94 931.311C4273.33 931.401 4275.77 931.11 4276.22 933.632C4276.79 936.853 4276.87 940.2 4277.14 943.448C4277.46 947.304 4277.74 951.162 4277.99 955.023C4278.48 962.539 4278.98 970.076 4279.12 977.604C4279.18 980.785 4274.89 979.917 4272.31 979.928C4268.36 979.943 4264.41 979.954 4260.46 979.959C4224.49 980.017 4188.51 979.822 4152.53 979.725C4135.25 979.678 4117.97 979.663 4100.69 979.682C4096.8 979.691 4092.92 979.704 4089.03 979.721C4087.87 979.721 4086.61 979.721 4086.05 978.654C4085.85 978.044 4085.8 977.402 4085.91 976.774C4085.94 975.527 4085.98 974.28 4086.01 973.032C4086.28 964.011 4086.68 954.994 4087.22 945.98C4087.47 941.733 4087.76 937.488 4088.08 933.245C4088.08 932.459 4087.72 931.705 4087.07 931.149C4086.43 930.594 4085.56 930.282 4084.65 930.282C4083.74 930.282 4082.87 930.594 4082.23 931.149C4081.59 931.705 4081.23 932.459 4081.23 933.245L4081.23 933.24Z" fill="#225B4A"/>
<path id="Vector_120" d="M4160.17 1103.31C4160.12 1100.91 4160.37 1098.32 4159.04 1096.2C4158.4 1095.21 4157.53 1094.39 4156.5 1093.82C4155.47 1093.25 4154.32 1092.94 4153.14 1092.92C4152.06 1092.87 4150.98 1092.92 4149.9 1092.92H4134.32C4129.97 1092.92 4124.35 1092.05 4122.03 1096.78C4120.99 1098.91 4121.21 1101.62 4121.43 1103.92C4121.53 1105.09 4121.92 1106.21 4122.56 1107.19C4123.2 1108.17 4124.08 1108.97 4125.11 1109.53C4126.92 1110.26 4128.89 1110.53 4130.83 1110.33H4150.1C4152.22 1110.33 4154.44 1110.54 4156.4 1109.55C4157.53 1108.94 4158.48 1108.05 4159.14 1106.95C4159.8 1105.85 4160.16 1104.59 4160.16 1103.31C4160.29 1099.29 4154.05 1099.29 4153.92 1103.31C4153.89 1104.12 4153.33 1104.09 4152.55 1104.09H4129.35C4128.52 1104.09 4127.98 1104.26 4127.64 1103.5C4127.46 1102.53 4127.43 1101.54 4127.55 1100.56C4127.55 1100.12 4127.42 1099.73 4127.71 1099.41C4128.09 1098.98 4129.13 1099.16 4129.71 1099.16H4147.9C4149.47 1099.16 4151.04 1099.12 4152.61 1099.16C4152.87 1099.13 4153.13 1099.15 4153.38 1099.21C4153.7 1099.34 4153.69 1099.4 4153.85 1099.77C4154.05 1100.94 4154.07 1102.13 4153.93 1103.31C4154.01 1107.32 4160.25 1107.33 4160.17 1103.31Z" fill="#225B4A"/>
<path id="Vector_121" d="M4230.74 1162.28C4219.52 1162.3 4208.31 1162.3 4197.1 1162.3C4181.69 1162.3 4166.29 1162.29 4150.88 1162.28C4134.86 1162.27 4118.85 1162.26 4102.84 1162.25L4063.15 1162.22C4056.31 1162.21 4049.47 1162.21 4042.63 1162.2H4041.92C4037.9 1162.2 4037.9 1168.44 4041.92 1168.44C4047.76 1168.44 4053.59 1168.45 4059.43 1168.46C4072.08 1168.47 4084.72 1168.48 4097.37 1168.49C4113.22 1168.5 4129.08 1168.51 4144.93 1168.52C4160.61 1168.53 4176.29 1168.53 4191.96 1168.54C4203.84 1168.54 4215.71 1168.53 4227.58 1168.52H4230.74C4234.75 1168.52 4234.76 1162.28 4230.74 1162.28V1162.28Z" fill="#225B4A"/>
<path id="Vector_122" d="M3899.35 1150.87C3894.3 1150.86 3888.91 1150.17 3884.18 1152.29C3882.23 1153.27 3880.52 1154.64 3879.14 1156.32C3877.77 1158.01 3876.76 1159.96 3876.2 1162.06C3875.63 1164.33 3875.39 1166.67 3875.47 1169C3875.37 1170.8 3875.57 1172.61 3876.07 1174.35C3877.42 1178.16 3880.79 1180.1 3884.63 1180.52C3887.03 1180.71 3889.43 1180.77 3891.83 1180.69H3900.12C3904.13 1180.69 3904.14 1174.45 3900.12 1174.45C3895.97 1174.45 3891.83 1174.5 3887.68 1174.44C3886.86 1174.43 3886.04 1174.4 3885.21 1174.34C3885.02 1174.32 3884.82 1174.3 3884.63 1174.28C3884.75 1174.29 3885.23 1174.4 3884.66 1174.28C3884.36 1174.22 3884.05 1174.15 3883.75 1174.07C3883.61 1174.04 3883.49 1173.98 3883.35 1173.94C3883.45 1173.97 3883.96 1174.29 3883.54 1174.02C3883.42 1173.94 3882.79 1173.61 3883.21 1173.86C3883.64 1174.11 3882.85 1173.54 3882.71 1173.41C3882.58 1173.28 3882.47 1173.15 3882.34 1173.02C3881.8 1172.49 3882.5 1173.3 3882.3 1172.97C3882.16 1172.73 3882.03 1172.51 3881.91 1172.26C3882.25 1172.96 3881.92 1172.14 3881.87 1171.9C3881.83 1171.75 3881.8 1171.58 3881.77 1171.42C3881.77 1171.46 3881.84 1171.99 3881.81 1171.61C3881.77 1171.18 3881.75 1170.76 3881.74 1170.32C3881.71 1169.44 3881.72 1168.56 3881.72 1167.67C3881.68 1166.03 3881.94 1164.38 3882.51 1162.84C3882.51 1162.82 3882.7 1162.36 3882.58 1162.64C3882.45 1162.96 3882.7 1162.4 3882.73 1162.33C3882.94 1161.94 3883.15 1161.54 3883.38 1161.16C3884.06 1159.95 3885.05 1158.94 3886.25 1158.23C3886.95 1157.8 3887.73 1157.5 3888.54 1157.35C3888.76 1157.29 3888.98 1157.25 3889.2 1157.21C3889.5 1157.14 3889.01 1157.2 3889.52 1157.16C3890.03 1157.12 3890.58 1157.1 3891.11 1157.08C3893.86 1157.02 3896.6 1157.11 3899.35 1157.11C3903.37 1157.12 3903.37 1150.88 3899.35 1150.87L3899.35 1150.87Z" fill="#225B4A"/>
<path id="Vector_123" d="M4043.55 1185.5C4042.01 1185.5 4040.47 1185.55 4038.93 1185.55C4038.34 1185.55 4037.75 1185.55 4037.16 1185.54C4036.89 1185.53 4035.6 1185.43 4035.89 1185.47C4033.79 1185.2 4031.84 1184.21 4030.37 1182.69C4028.5 1180.58 4027.05 1178.14 4026.1 1175.48C4024.74 1172.25 4023.81 1168.86 4022.54 1165.59C4018.67 1155.55 4013.31 1145.94 4005.5 1138.42C3997.82 1131.14 3988.26 1126.12 3977.9 1123.95C3971.51 1122.64 3964.99 1122.01 3958.47 1122.07C3951.5 1121.95 3944.55 1122.9 3937.87 1124.89C3923.54 1129.45 3911.37 1139.1 3903.68 1152.03L3906.38 1150.49C3904.04 1150.7 3901.7 1150.86 3899.35 1150.87C3895.33 1150.9 3895.32 1157.14 3899.35 1157.11C3900.86 1157.1 3902.37 1157.02 3903.88 1156.92C3906.06 1156.78 3907.99 1156.86 3909.28 1154.83C3910.67 1152.53 3912.21 1150.33 3913.9 1148.23C3918.27 1143.07 3923.52 1138.73 3929.41 1135.4C3941.89 1128.25 3956.35 1127.31 3970.4 1128.97C3980.81 1130.03 3990.68 1134.12 3998.78 1140.75C4006.82 1147.62 4012.44 1156.85 4016.28 1166.61C4018.97 1173.45 4020.52 1181.75 4025.96 1187.1C4028.09 1189.25 4030.79 1190.74 4033.74 1191.4C4036.99 1191.83 4040.28 1191.95 4043.55 1191.75C4047.57 1191.73 4047.57 1185.49 4043.55 1185.5H4043.55Z" fill="#225B4A"/>
<path id="Vector_124" d="M4043.55 1191.75C4051.76 1191.75 4059.97 1191.74 4068.18 1191.73L4107.3 1191.7L4152.63 1191.65C4167.24 1191.64 4181.85 1191.63 4196.45 1191.62C4207.93 1191.61 4219.41 1191.6 4230.89 1191.6H4234.18C4238.2 1191.6 4238.2 1185.36 4234.18 1185.36C4223.29 1185.36 4212.39 1185.36 4201.5 1185.37C4187.07 1185.38 4172.65 1185.4 4158.23 1185.41L4112.65 1185.45L4072.49 1185.49C4063.53 1185.49 4054.57 1185.5 4045.61 1185.5H4043.55C4039.53 1185.5 4039.53 1191.75 4043.55 1191.75H4043.55Z" fill="#225B4A"/>
<path id="Vector_125" d="M4177.45 1099.36C4176.62 1107.84 4175.72 1116.32 4174.76 1124.8C4173.88 1132.48 4173.08 1139.99 4171.69 1147.56C4171.49 1148.36 4171.61 1149.2 4172.02 1149.92C4172.42 1150.63 4173.09 1151.16 4173.87 1151.4C4174.67 1151.61 4175.52 1151.5 4176.24 1151.1C4176.96 1150.69 4177.48 1150.01 4177.71 1149.22C4179.16 1141.3 4180.03 1133.26 4180.95 1125.26C4181.94 1116.64 4182.85 1108 4183.69 1099.36C4183.68 1098.53 4183.35 1097.74 4182.77 1097.16C4182.18 1096.57 4181.39 1096.24 4180.57 1096.24C4179.74 1096.26 4178.96 1096.59 4178.38 1097.17C4177.8 1097.75 4177.46 1098.54 4177.45 1099.36Z" fill="#225B4A"/>
<path id="Vector_126" d="M4027.77 1077.71C4035.64 1068.27 4043.47 1058.79 4051.25 1049.27C4055.16 1044.5 4059.06 1039.73 4062.95 1034.95C4066.4 1030.73 4069.58 1025.72 4074.46 1023.04C4079.28 1020.4 4084.59 1020.82 4089.88 1020.83L4106.51 1020.87L4142.12 1020.94L4155.94 1020.97C4157.78 1020.97 4159.92 1020.73 4160.84 1022.68C4161.13 1023.53 4161.23 1024.44 4161.14 1025.34C4161.16 1026.69 4161.17 1028.04 4161.19 1029.4C4161.34 1042.35 4161.52 1055.29 4161.61 1068.24C4161.63 1070.3 4162.36 1073.63 4160.61 1075.16C4159.13 1076.46 4156.36 1075.9 4154.53 1075.9C4149.55 1075.9 4144.57 1075.9 4139.58 1075.91C4127.92 1075.93 4116.25 1075.95 4104.59 1075.97C4084.87 1076 4065.14 1076.03 4045.42 1076.06H4041.63C4037.62 1076.06 4037.61 1082.3 4041.63 1082.3C4060.65 1082.3 4079.66 1082.27 4098.68 1082.22C4110.85 1082.2 4123.03 1082.18 4135.2 1082.16C4140.57 1082.15 4145.94 1082.15 4151.31 1082.14C4153.68 1082.14 4156.06 1082.2 4158.43 1082.14C4160.13 1082.15 4161.8 1081.7 4163.26 1080.85C4164.72 1079.99 4165.93 1078.76 4166.77 1077.29C4168.33 1074.39 4167.88 1070.94 4167.86 1067.77C4167.83 1064.34 4167.8 1060.91 4167.76 1057.48C4167.69 1050.58 4167.61 1043.68 4167.53 1036.78C4167.49 1033.78 4167.46 1030.78 4167.42 1027.79C4167.39 1024.86 4167.64 1021.78 4166.03 1019.18C4165.16 1017.81 4163.95 1016.68 4162.52 1015.9C4161.1 1015.12 4159.49 1014.72 4157.87 1014.74C4155.81 1014.71 4153.76 1014.73 4151.71 1014.73C4128.91 1014.68 4106.09 1014.37 4083.3 1014.58C4079.75 1014.59 4076.25 1015.35 4073.02 1016.83C4069.8 1018.3 4066.92 1020.44 4064.59 1023.11C4060.86 1027.5 4057.31 1032.07 4053.67 1036.53C4045.34 1046.72 4036.98 1056.88 4028.59 1067.02C4026.85 1069.12 4025.11 1071.21 4023.37 1073.3C4022.8 1073.9 4022.49 1074.69 4022.49 1075.51C4022.49 1076.33 4022.8 1077.12 4023.37 1077.71C4023.95 1078.29 4024.75 1078.62 4025.57 1078.62C4026.4 1078.62 4027.19 1078.29 4027.78 1077.71L4027.77 1077.71Z" fill="#225B4A"/>
<path id="Vector_127" d="M3892.21 1152.59C3889.49 1145.9 3887.06 1139.11 3884.62 1132.32C3882.26 1125.76 3879.66 1118.96 3879.22 1111.94C3878.92 1108.83 3879.3 1105.69 3880.32 1102.74C3881.35 1099.79 3883 1097.09 3885.17 1094.84C3889.17 1090.78 3894.45 1088.12 3899.7 1086.04C3912.01 1081.17 3924.99 1077.72 3937.78 1074.37C3952.09 1070.62 3966.52 1067.33 3981 1064.31C3987.79 1062.9 3995.06 1062.12 4001.56 1059.65C4007.46 1057.43 4012.77 1053.87 4017.06 1049.25C4026.55 1039.04 4035.6 1028.43 4044.96 1018.11C4049.44 1013.18 4053.86 1008.5 4059.61 1005.02C4064.94 1001.77 4070.88 999.65 4077.05 998.782C4084.82 997.742 4093.03 998.235 4100.85 998.154C4144.18 997.704 4187.52 997.828 4230.86 998.046C4241.33 998.1 4251.8 998.168 4262.27 998.252C4272.54 998.336 4283.1 997.478 4292.4 1002.67C4297.37 1005.42 4301.5 1009.46 4304.35 1014.38C4307.92 1020.61 4310.58 1027.51 4313.69 1033.98C4319.35 1045.78 4325.21 1057.48 4331.26 1069.08C4334.06 1074.78 4337.73 1080.01 4342.15 1084.58C4345.5 1087.89 4349.61 1090.2 4353.02 1093.42C4359.92 1099.92 4364.61 1108.49 4367.85 1117.31C4371.75 1127.79 4374 1138.81 4374.51 1149.97C4374.82 1154.81 4374.58 1159.67 4373.8 1164.46C4373.52 1166.24 4373.04 1167.98 4372.37 1169.65C4371.65 1171.32 4370.94 1172.44 4369.35 1172.82C4364.36 1173.96 4359.29 1174.76 4354.19 1175.23C4350.23 1175.61 4350.19 1181.86 4354.19 1181.47C4359.71 1180.94 4365.13 1179.95 4370.57 1178.92C4375.27 1178.03 4377.58 1174.09 4378.94 1169.78C4381.86 1160.5 4381.18 1149.74 4379.91 1140.23C4377.19 1119.77 4369.42 1096.8 4351.8 1084.45C4341.1 1076.95 4336 1064.81 4330.27 1053.5C4323.62 1040.39 4317.41 1027.08 4311.08 1013.82C4308.43 1008.4 4304.55 1003.69 4299.74 1000.05C4294.93 996.411 4289.34 993.954 4283.41 992.874C4278.2 991.916 4272.89 992.094 4267.62 992.051C4262.51 992.006 4257.41 991.965 4252.3 991.929C4206.31 991.604 4160.31 991.479 4114.32 991.799C4105.79 991.858 4097.26 991.948 4088.73 992.068C4084.3 992.009 4079.86 992.239 4075.45 992.757C4068.99 993.733 4062.78 995.932 4057.14 999.236C4051.39 1002.78 4046.22 1007.19 4041.81 1012.31C4036.61 1018.02 4031.47 1023.79 4026.33 1029.56C4017.62 1039.35 4009.49 1051.33 3996.17 1054.84C3989.16 1056.68 3981.88 1057.75 3974.79 1059.26C3967.2 1060.88 3959.63 1062.58 3952.08 1064.37C3937.78 1067.78 3923.54 1071.53 3909.53 1076.03C3898.17 1079.68 3885.38 1083.67 3877.99 1093.7C3869.02 1105.89 3873.99 1121.15 3878.6 1133.98C3881.05 1140.77 3883.48 1147.57 3886.19 1154.26C3887.68 1157.93 3893.72 1156.32 3892.21 1152.6L3892.21 1152.59Z" fill="#225B4A"/>
<path id="Vector_128" d="M4289.52 1029.98C4288.15 1026.75 4286.79 1023.5 4285.31 1020.31C4284.64 1018.8 4283.58 1017.5 4282.25 1016.53C4280.91 1015.56 4279.34 1014.96 4277.7 1014.78C4273.33 1014.54 4268.95 1014.53 4264.58 1014.75C4253.48 1014.79 4242.38 1014.84 4231.28 1014.9C4221.32 1014.95 4211.35 1014.99 4201.39 1015.04C4199.3 1014.89 4197.2 1015 4195.14 1015.36C4193.66 1015.76 4192.29 1016.52 4191.17 1017.57C4190.04 1018.63 4189.19 1019.94 4188.69 1021.39C4187.89 1023.73 4188.2 1026.49 4188.2 1028.94L4188.17 1036.88C4188.15 1043.02 4188.13 1049.17 4188.11 1055.32C4188.1 1058.35 4188.09 1061.37 4188.08 1064.4C4187.93 1067.1 4187.97 1069.8 4188.18 1072.49C4188.37 1074.01 4188.92 1075.46 4189.77 1076.72C4190.62 1077.99 4191.76 1079.04 4193.09 1079.79C4195.3 1080.83 4197.75 1081.26 4200.18 1081.03L4211.72 1080.94C4233.35 1080.75 4254.97 1080.57 4276.6 1080.4C4281.32 1080.36 4286.04 1080.33 4290.76 1080.3C4292.82 1080.29 4294.93 1080.39 4297 1080.25C4298.55 1080.16 4300.05 1079.69 4301.37 1078.88C4302.69 1078.07 4303.8 1076.95 4304.58 1075.61C4305.32 1074.26 4305.72 1072.75 4305.76 1071.22C4305.8 1069.68 4305.47 1068.16 4304.81 1066.77C4303.64 1064.02 4302.49 1061.26 4301.35 1058.49C4298.69 1052.07 4296.05 1045.64 4293.39 1039.22C4292.11 1036.14 4290.82 1033.06 4289.52 1029.98C4289.1 1029.27 4288.41 1028.76 4287.61 1028.55C4286.81 1028.34 4285.96 1028.45 4285.25 1028.86C4284.55 1029.3 4284.04 1029.98 4283.84 1030.78C4283.63 1031.57 4283.73 1032.42 4284.13 1033.14C4288.98 1044.61 4293.62 1056.18 4298.46 1067.67C4299.27 1069.59 4300.28 1071.45 4298.74 1073.08C4297.53 1074.36 4295.57 1074.03 4293.92 1074.04C4289.71 1074.06 4285.49 1074.09 4281.27 1074.12C4260.75 1074.27 4240.23 1074.44 4219.7 1074.63L4206.94 1074.74L4201.66 1074.78C4200.13 1074.94 4198.59 1074.91 4197.06 1074.71C4195.06 1074.23 4194.32 1072.5 4194.31 1070.61C4194.31 1068.08 4194.32 1065.56 4194.33 1063.03C4194.35 1057.29 4194.36 1051.56 4194.38 1045.82C4194.4 1040.46 4194.42 1035.09 4194.44 1029.73C4194.44 1028.66 4194.44 1027.58 4194.45 1026.51C4194.35 1025.49 4194.4 1024.46 4194.59 1023.45C4195.12 1021.73 4196.61 1021.3 4198.25 1021.3C4206.93 1021.26 4215.62 1021.22 4224.3 1021.17C4234.89 1021.12 4245.47 1021.07 4256.05 1021.03C4260.72 1021.01 4265.4 1020.99 4270.07 1020.98C4272.01 1020.97 4273.96 1020.97 4275.9 1020.96C4276.76 1020.87 4277.62 1021.02 4278.39 1021.41C4279.32 1022.16 4279.99 1023.18 4280.32 1024.33C4281.63 1027.25 4282.88 1030.19 4284.13 1033.14C4284.55 1033.85 4285.24 1034.36 4286.04 1034.57C4286.84 1034.78 4287.68 1034.67 4288.4 1034.25C4289.1 1033.82 4289.6 1033.14 4289.81 1032.34C4290.02 1031.55 4289.91 1030.7 4289.52 1029.98Z" fill="#225B4A"/>
<path id="Vector_129" d="M3956.67 1143.3C3929.92 1143.3 3908.67 1161.25 3908.67 1190.08C3908.67 1226.99 3936.46 1241.16 3957.43 1241.16C3980.5 1241.16 4006.2 1228.31 4006.2 1191.73C4006.2 1169 3991.26 1143.3 3956.67 1143.3Z" fill="#225B4A"/>
<path id="Vector_130" d="M3957.16 1174.96C3947.73 1174.96 3940.23 1181.3 3940.23 1191.48C3940.23 1204.5 3950.03 1209.5 3957.43 1209.5C3965.57 1209.5 3974.64 1204.96 3974.64 1192.06C3974.64 1184.03 3969.37 1174.96 3957.16 1174.96Z" fill="white"/>
<path id="Vector_131" d="M4295.92 1143.3C4269.17 1143.3 4247.92 1161.25 4247.92 1190.08C4247.92 1226.99 4275.71 1241.16 4296.68 1241.16C4319.75 1241.16 4345.45 1228.31 4345.45 1191.73C4345.45 1169 4330.51 1143.3 4295.92 1143.3Z" fill="#225B4A"/>
<path id="Vector_132" d="M4296.41 1174.96C4286.97 1174.96 4279.48 1181.3 4279.48 1191.48C4279.48 1204.5 4289.28 1209.5 4296.68 1209.5C4304.82 1209.5 4313.89 1204.96 4313.89 1192.06C4313.89 1184.03 4308.62 1174.96 4296.41 1174.96Z" fill="white"/>
<path id="Vector_133" d="M4022.11 1068.3C4022 1065.7 4022.74 1063.14 4024.2 1061C4025.63 1058.85 4030.35 1056.35 4032.94 1056.21L4037.07 1056.07C4038.3 1056.18 4039.48 1056.63 4040.47 1057.37C4041.46 1058.1 4042.23 1059.1 4042.69 1060.25C4043.6 1063.64 4043.13 1071.37 4043.21 1072.88C4043.44 1077.92 4043.31 1082.98 4042.82 1088.01C4042.58 1090.08 4041.17 1092.27 4037.56 1091.52C4033.96 1090.77 4028.72 1090.09 4027.07 1088.11C4025.38 1085.69 4024.27 1082.92 4023.81 1080C4022.97 1076.15 4022.4 1072.23 4022.11 1068.3Z" fill="white"/>
<g id="Vector 2">
<path d="M3908.12 1156L3900 1174.5H3889.5H3887.5H3885H3884H3883L3882.5 1174L3882 1173.5L3881.5 1173L3881 1172V1170.5V1166L3881.5 1164L3882 1162.5L3882.5 1161.5L3883 1160.5L3883.5 1160L3884.5 1159L3886 1158L3887 1157.5L3888.5 1157H3899H3903L3906.5 1156.5L3908.12 1156Z" fill="#225B4A"/>
<path d="M3909 1154L3908.12 1156M3908.12 1156L3900 1174.5H3889.5H3887.5H3885H3884H3883L3882.5 1174L3882 1173.5L3881.5 1173L3881 1172V1170.5V1166L3881.5 1164L3882 1162.5L3882.5 1161.5L3883 1160.5L3883.5 1160L3884.5 1159L3886 1158L3887 1157.5L3888.5 1157H3899H3903L3906.5 1156.5L3908.12 1156Z" stroke="#225B4A"/>
</g>
<path id="Vector_134" d="M4025.23 1068.3C4025.29 1065.23 4026.1 1062.81 4028.53 1061.24C4030.25 1060.02 4032.29 1059.34 4034.4 1059.28C4036.39 1059.21 4037.86 1058.83 4039.25 1060.45C4039.72 1061.08 4039.97 1061.85 4039.96 1062.64C4040.11 1064.18 4040.13 1065.72 4040.14 1067.27C4040.15 1072.59 4040.33 1077.94 4040.07 1083.26C4040.05 1084.78 4039.93 1086.3 4039.7 1087.8C4039.67 1088 4039.55 1088.21 4039.52 1088.41C4039.57 1088 4039.18 1088.6 4039.49 1088.39C4039.79 1088.18 4039.38 1088.49 4039.33 1088.51C4039.52 1088.45 4038.66 1088.54 4038.58 1088.54C4037.13 1088.37 4035.69 1088.09 4034.28 1087.7C4032.79 1087.48 4031.33 1087.04 4029.96 1086.42C4029.29 1086.06 4029.41 1086.1 4028.95 1085.38C4028.48 1084.61 4028.1 1083.79 4027.82 1082.94C4027.26 1081.21 4026.83 1079.44 4026.52 1077.65C4025.81 1074.58 4025.38 1071.44 4025.23 1068.29C4025.2 1064.28 4018.96 1064.27 4018.99 1068.29C4019.16 1072 4019.67 1075.69 4020.5 1079.31C4021.24 1083.19 4022.24 1087.99 4025.31 1090.75C4028.25 1093.39 4033.01 1093.86 4036.74 1094.53C4040.93 1095.28 4044.99 1093.5 4045.81 1088.99C4047.06 1082.13 4046.36 1074.85 4046.38 1067.9C4046.39 1064.39 4046.67 1059.95 4044.46 1057C4043.15 1055.22 4041.31 1053.91 4039.2 1053.24C4037.98 1052.96 4036.72 1052.87 4035.47 1053C4031.91 1052.97 4028.41 1053.95 4025.39 1055.85C4020.98 1058.68 4019.09 1063.15 4018.99 1068.29C4018.91 1072.31 4025.15 1072.31 4025.23 1068.3Z" fill="#225B4A"/>
<path id="Vector_135" d="M4291.06 1119.29C4272.58 1119.29 4253.87 1126.08 4242.26 1140.99C4239.41 1144.66 4237.06 1148.69 4235.27 1152.99C4235.05 1153.78 4235.16 1154.63 4235.57 1155.35C4235.98 1156.07 4236.65 1156.6 4237.45 1156.82C4238.24 1157.02 4239.09 1156.91 4239.8 1156.5C4240.52 1156.1 4241.05 1155.43 4241.29 1154.64C4247.18 1140.66 4260.53 1130.94 4275.2 1127.34C4280.4 1126.1 4285.72 1125.49 4291.06 1125.53C4295.08 1125.53 4295.09 1119.29 4291.06 1119.29H4291.06Z" fill="#225B4A"/>
<path id="Vector_136" d="M4348.38 1097.35C4346.79 1098.93 4345.89 1101.08 4345.86 1103.33C4346.11 1105.53 4346.67 1107.67 4347.52 1109.71C4348.95 1114.28 4350.43 1118.83 4351.98 1123.37C4353.53 1127.92 4355.03 1132.51 4356.76 1137C4358.49 1141.48 4362.66 1143.09 4367.08 1143.81C4367.88 1144.01 4368.72 1143.89 4369.43 1143.49C4370.15 1143.08 4370.68 1142.42 4370.92 1141.64C4371.13 1140.84 4371.02 1139.99 4370.62 1139.27C4370.21 1138.55 4369.53 1138.02 4368.74 1137.8C4367.08 1137.68 4365.46 1137.24 4363.96 1136.5C4362.98 1135.69 4362.31 1134.57 4362.05 1133.32C4360.67 1129.46 4359.32 1125.59 4358 1121.71C4356.75 1118.02 4355.53 1114.33 4354.34 1110.62C4353.77 1108.82 4353.21 1107.03 4352.66 1105.23C4352.27 1103.93 4351.73 1102.85 4352.79 1101.77C4355.62 1098.9 4351.21 1094.48 4348.38 1097.35L4348.38 1097.35Z" fill="#225B4A"/>
<path id="Vector_137" d="M3894.73 1095.79C3891.58 1098.39 3889.87 1102.56 3888.88 1106.42C3887.74 1110.89 3887.46 1115.53 3888.04 1120.1C3888.06 1120.92 3888.4 1121.7 3888.98 1122.28C3889.56 1122.86 3890.34 1123.2 3891.16 1123.22C3891.98 1123.22 3892.77 1122.89 3893.36 1122.3C3893.94 1121.72 3894.27 1120.93 3894.28 1120.1C3893.74 1116.21 3893.92 1112.25 3894.81 1108.43C3895.61 1105.13 3896.63 1102.28 3899.15 1100.2C3899.73 1099.61 3900.05 1098.82 3900.05 1097.99C3900.05 1097.17 3899.73 1096.37 3899.15 1095.79C3898.55 1095.22 3897.76 1094.9 3896.94 1094.9C3896.12 1094.9 3895.33 1095.22 3894.73 1095.79Z" fill="#225B4A"/>
<path id="TBR - Agency" d="M4110.62 948.31V945.455H4122.91V948.31H4118.5V960H4115.04V948.31H4110.62ZM4125.63 960V945.455H4131.7C4132.79 945.455 4133.7 945.608 4134.43 945.916C4135.17 946.224 4135.72 946.655 4136.09 947.209C4136.47 947.763 4136.65 948.404 4136.65 949.134C4136.65 949.688 4136.54 950.182 4136.31 950.618C4136.07 951.049 4135.75 951.406 4135.35 951.69C4134.94 951.974 4134.47 952.173 4133.93 952.287V952.429C4134.52 952.457 4135.06 952.616 4135.56 952.905C4136.06 953.194 4136.46 953.596 4136.77 954.112C4137.07 954.624 4137.22 955.23 4137.22 955.93C4137.22 956.712 4137.02 957.41 4136.63 958.026C4136.23 958.636 4135.65 959.119 4134.9 959.474C4134.15 959.825 4133.23 960 4132.16 960H4125.63ZM4129.15 957.166H4131.32C4132.08 957.166 4132.64 957.022 4133 956.733C4133.37 956.444 4133.55 956.042 4133.55 955.526C4133.55 955.152 4133.46 954.83 4133.29 954.56C4133.11 954.285 4132.86 954.074 4132.54 953.928C4132.22 953.776 4131.83 953.7 4131.38 953.7H4129.15V957.166ZM4129.15 951.435H4131.09C4131.48 951.435 4131.82 951.371 4132.12 951.243C4132.41 951.115 4132.65 950.93 4132.81 950.689C4132.98 950.447 4133.07 950.156 4133.07 949.815C4133.07 949.328 4132.89 948.944 4132.55 948.665C4132.2 948.385 4131.74 948.246 4131.15 948.246H4129.15V951.435ZM4139.91 960V945.455H4145.92C4147.01 945.455 4147.95 945.651 4148.74 946.044C4149.54 946.432 4150.15 946.991 4150.58 947.72C4151.01 948.445 4151.23 949.304 4151.23 950.298C4151.23 951.307 4151.01 952.164 4150.57 952.869C4150.13 953.57 4149.5 954.105 4148.69 954.474C4147.88 954.839 4146.92 955.021 4145.81 955.021H4142.01V952.251H4145.16C4145.69 952.251 4146.13 952.183 4146.49 952.045C4146.85 951.903 4147.12 951.69 4147.31 951.406C4147.49 951.117 4147.58 950.748 4147.58 950.298C4147.58 949.848 4147.49 949.477 4147.31 949.183C4147.12 948.885 4146.85 948.662 4146.49 948.516C4146.13 948.364 4145.69 948.288 4145.16 948.288H4143.43V960H4139.91ZM4148.1 953.352L4151.72 960H4147.89L4144.34 953.352H4148.1ZM4166.43 951.392V954.062H4159.7V951.392H4166.43ZM4178.33 960H4174.55L4179.46 945.455H4184.14L4189.05 960H4185.27L4181.85 949.119H4181.74L4178.33 960ZM4177.82 954.276H4185.72V956.946H4177.82V954.276ZM4196.01 964.318C4194.98 964.318 4194.09 964.174 4193.35 963.885C4192.61 963.596 4192.03 963.201 4191.61 962.699C4191.19 962.197 4190.94 961.629 4190.85 960.994L4194.14 960.81C4194.2 961.032 4194.31 961.226 4194.48 961.392C4194.65 961.558 4194.87 961.686 4195.14 961.776C4195.41 961.866 4195.74 961.911 4196.11 961.911C4196.69 961.911 4197.17 961.768 4197.55 961.484C4197.93 961.205 4198.12 960.715 4198.12 960.014V958.097H4198C4197.86 958.433 4197.66 958.733 4197.38 958.999C4197.1 959.264 4196.75 959.472 4196.33 959.624C4195.92 959.775 4195.45 959.851 4194.91 959.851C4194.12 959.851 4193.39 959.666 4192.72 959.297C4192.07 958.923 4191.54 958.345 4191.14 957.564C4190.75 956.778 4190.55 955.767 4190.55 954.531C4190.55 953.258 4190.76 952.209 4191.16 951.385C4191.57 950.556 4192.1 949.943 4192.76 949.545C4193.42 949.148 4194.14 948.949 4194.9 948.949C4195.47 948.949 4195.96 949.048 4196.37 949.247C4196.78 949.441 4197.12 949.692 4197.38 950C4197.65 950.308 4197.85 950.627 4197.99 950.959H4198.09V949.091H4201.55V960.043C4201.55 960.966 4201.31 961.745 4200.85 962.379C4200.39 963.014 4199.74 963.494 4198.9 963.821C4198.07 964.152 4197.11 964.318 4196.01 964.318ZM4196.12 957.322C4196.54 957.322 4196.9 957.211 4197.2 956.989C4197.5 956.766 4197.73 956.446 4197.89 956.03C4198.05 955.613 4198.13 955.114 4198.13 954.531C4198.13 953.939 4198.05 953.43 4197.89 953.004C4197.73 952.573 4197.5 952.242 4197.2 952.01C4196.9 951.778 4196.54 951.662 4196.12 951.662C4195.69 951.662 4195.32 951.78 4195.03 952.017C4194.73 952.254 4194.5 952.588 4194.34 953.018C4194.19 953.445 4194.12 953.949 4194.12 954.531C4194.12 955.114 4194.2 955.613 4194.35 956.03C4194.51 956.446 4194.73 956.766 4195.03 956.989C4195.32 957.211 4195.69 957.322 4196.12 957.322ZM4209.86 960.206C4208.72 960.206 4207.73 959.981 4206.9 959.531C4206.08 959.077 4205.45 958.43 4205 957.592C4204.56 956.75 4204.34 955.748 4204.34 954.588C4204.34 953.461 4204.56 952.476 4205.01 951.634C4205.45 950.786 4206.08 950.128 4206.89 949.659C4207.7 949.186 4208.65 948.949 4209.75 948.949C4210.53 948.949 4211.24 949.07 4211.88 949.311C4212.53 949.553 4213.08 949.91 4213.55 950.384C4214.02 950.857 4214.39 951.442 4214.65 952.138C4214.91 952.829 4215.04 953.622 4215.04 954.517V955.384H4205.56V953.366H4211.81C4211.8 952.997 4211.71 952.668 4211.54 952.379C4211.37 952.09 4211.14 951.866 4210.84 951.705C4210.55 951.539 4210.21 951.456 4209.82 951.456C4209.44 951.456 4209.09 951.544 4208.78 951.719C4208.47 951.889 4208.23 952.124 4208.05 952.422C4207.87 952.715 4207.77 953.049 4207.76 953.423V955.476C4207.76 955.921 4207.85 956.312 4208.03 956.648C4208.2 956.979 4208.45 957.237 4208.77 957.422C4209.09 957.607 4209.48 957.699 4209.92 957.699C4210.23 957.699 4210.51 957.656 4210.76 957.571C4211.01 957.486 4211.23 957.36 4211.41 957.195C4211.59 957.029 4211.72 956.825 4211.81 956.584L4215 956.676C4214.87 957.391 4214.58 958.014 4214.13 958.544C4213.68 959.07 4213.1 959.479 4212.37 959.773C4211.65 960.062 4210.81 960.206 4209.86 960.206ZM4221.28 953.778V960H4217.81V949.091H4221.11V951.094H4221.23C4221.48 950.426 4221.89 949.903 4222.47 949.524C4223.05 949.141 4223.75 948.949 4224.55 948.949C4225.32 948.949 4225.98 949.122 4226.55 949.467C4227.11 949.808 4227.56 950.286 4227.87 950.902C4228.18 951.513 4228.34 952.228 4228.34 953.047V960H4224.86V953.729C4224.87 953.123 4224.71 952.649 4224.4 952.308C4224.09 951.967 4223.67 951.797 4223.12 951.797C4222.75 951.797 4222.43 951.877 4222.15 952.038C4221.88 952.195 4221.66 952.42 4221.51 952.713C4221.36 953.007 4221.29 953.362 4221.28 953.778ZM4236.58 960.206C4235.43 960.206 4234.44 959.969 4233.62 959.496C4232.8 959.022 4232.17 958.364 4231.73 957.521C4231.29 956.674 4231.07 955.694 4231.07 954.581C4231.07 953.464 4231.29 952.483 4231.73 951.641C4232.17 950.793 4232.81 950.133 4233.62 949.659C4234.45 949.186 4235.43 948.949 4236.57 948.949C4237.58 948.949 4238.46 949.131 4239.21 949.496C4239.96 949.86 4240.55 950.376 4240.97 951.044C4241.39 951.707 4241.62 952.486 4241.64 953.381H4238.4C4238.33 952.822 4238.14 952.384 4237.83 952.067C4237.52 951.75 4237.12 951.591 4236.62 951.591C4236.22 951.591 4235.87 951.705 4235.56 951.932C4235.26 952.154 4235.02 952.486 4234.85 952.926C4234.69 953.362 4234.6 953.902 4234.6 954.545C4234.6 955.189 4234.69 955.734 4234.85 956.179C4235.02 956.619 4235.26 956.953 4235.56 957.18C4235.87 957.403 4236.22 957.514 4236.62 957.514C4236.94 957.514 4237.23 957.446 4237.47 957.308C4237.72 957.171 4237.93 956.97 4238.09 956.705C4238.25 956.435 4238.35 956.108 4238.4 955.724H4241.64C4241.61 956.624 4241.38 957.41 4240.97 958.082C4240.56 958.755 4239.98 959.278 4239.23 959.652C4238.48 960.021 4237.6 960.206 4236.58 960.206ZM4246.54 964.091C4246.13 964.091 4245.73 964.058 4245.36 963.991C4245 963.93 4244.68 963.847 4244.41 963.743L4245.18 961.222C4245.52 961.335 4245.83 961.402 4246.1 961.42C4246.38 961.439 4246.62 961.394 4246.82 961.286C4247.02 961.181 4247.18 960.994 4247.29 960.724L4247.42 960.398L4243.55 949.091H4247.18L4249.19 956.875H4249.31L4251.34 949.091H4255L4250.89 961.044C4250.69 961.641 4250.41 962.166 4250.05 962.621C4249.69 963.08 4249.22 963.44 4248.65 963.7C4248.08 963.961 4247.38 964.091 4246.54 964.091Z" fill="black"/>
</g>
<g id="bus">
<path id="Vector 1" d="M24.5001 1176.54C17 1187.96 20.0001 1387.54 20.0001 1387.54H96.0001L102 1369.96L113.5 1357.54L128.5 1345.46L151.5 1340.46L174 1345.46L190.5 1357.54L201 1369.96L207.5 1387.54H362L370 1369.96L380.5 1357.54C391 1342.96 413.5 1342.96 413.5 1342.96C413.5 1342.96 434 1338.48 451.5 1352.96C469 1367.45 451.5 1352.96 468.5 1369.96C471 1376.46 474 1380.96 474 1387.54L558 1390.04C556.807 1379.12 559.5 1238.54 554.5 1251.04V1245.04L520.5 1139.54L511.5 1134.61C505.866 1132.03 454 1134.61 421 1134.61L84.0001 1134.61C64.4869 1136.98 66.1994 1137.1 54.0001 1143.54C38.7814 1151.62 32.4479 1159.01 24.5001 1176.54Z" fill="white" stroke="#263238"/>
<path id="Vector_138" d="M86.5368 1120H505.276C518.937 1120 531.17 1128.9 535.329 1141.85L566.533 1237.63C569.571 1246.83 571 1256.46 571 1266.25V1402.57H475.665C473.794 1432.35 449.191 1455.93 418.859 1455.93C388.523 1455.93 363.915 1432.35 362.053 1402.57H208.473C206.61 1432.35 181.862 1455.93 151.666 1455.93C121.335 1455.93 96.731 1432.35 94.8838 1402.57H6V1200.54C6 1156.09 42.0894 1120 86.5368 1120ZM394.699 1402.57C396.411 1414.37 406.635 1423.43 418.859 1423.43C431.073 1423.43 441.433 1414.37 443.15 1402.57C443.3 1401.42 443.448 1400.26 443.448 1398.98C443.448 1395.1 442.589 1391.5 440.708 1388.19C436.973 1379.99 428.489 1374.38 418.861 1374.38C409.22 1374.38 400.884 1379.99 397.002 1388.19C395.262 1391.5 394.408 1395.1 394.408 1398.98C394.407 1400.26 394.563 1401.42 394.699 1402.57ZM127.376 1402.57C129.091 1414.37 139.453 1423.43 151.666 1423.43C163.884 1423.43 174.114 1414.37 175.824 1402.57C175.961 1401.42 176.117 1400.26 176.117 1398.98C176.117 1395.1 175.264 1391.5 173.524 1388.19C169.643 1379.99 161.3 1374.38 151.666 1374.38C142.036 1374.38 133.553 1379.99 129.818 1388.19C127.935 1391.5 127.078 1395.1 127.078 1398.98C127.078 1400.26 127.234 1401.42 127.376 1402.57ZM20.3777 1388.19H95.7169C100.758 1361.86 123.923 1342.05 151.666 1342.05C179.277 1342.05 202.578 1361.86 207.615 1388.19H362.91C367.946 1361.86 391.107 1342.05 418.859 1342.05C446.602 1342.05 469.761 1361.86 474.803 1388.19H556.622V1266.25C556.622 1258.05 555.325 1249.86 552.881 1241.94L521.676 1146.3C519.381 1139.27 512.744 1134.37 505.276 1134.37H86.5357C68.2659 1134.37 51.7419 1141.85 39.8018 1153.79C27.7161 1165.72 20.3777 1182.26 20.3777 1200.54V1388.19Z" fill="#225B4A"/>
<path id="Vector_139" d="M94.1035 1162.68H138.219C142.724 1162.68 146.372 1166.34 146.372 1170.83V1240.39C146.372 1244.87 142.724 1248.54 138.219 1248.54H63.0595C58.5637 1248.54 54.9067 1244.87 54.9067 1240.39V1201.88C54.9078 1180.28 72.4945 1162.68 94.1035 1162.68Z" fill="#225B4A"/>
<path id="Vector_140" d="M468.626 1162.68H485.319C488.844 1162.68 491.994 1164.96 493.086 1168.32L519.61 1249.99C521.288 1255.09 522.116 1260.39 522.116 1265.73V1307.55C522.116 1312.03 518.459 1315.68 513.955 1315.68H468.626C464.13 1315.68 460.473 1312.03 460.473 1307.55V1170.83C460.472 1166.34 464.13 1162.68 468.626 1162.68Z" fill="#225B4A"/>
<path id="Vector_141" d="M329.926 1162.68H423.773C426.016 1162.68 427.84 1164.52 427.84 1166.78V1244.46C427.84 1246.72 426.017 1248.54 423.773 1248.54H329.926C327.659 1248.54 325.835 1246.72 325.835 1244.46V1166.78C325.835 1164.52 327.659 1162.68 329.926 1162.68Z" fill="#225B4A"/>
<path id="Vector_142" d="M190.062 1162.68H287.41C289.658 1162.68 291.486 1164.52 291.486 1166.78V1244.46C291.486 1246.72 289.658 1248.54 287.41 1248.54H190.062C187.82 1248.54 185.996 1246.72 185.996 1244.46V1166.78C185.996 1164.52 187.82 1162.68 190.062 1162.68Z" fill="#225B4A"/>
<path id="TBR - Agency_2" d="M48.75 1283.27V1275.27H83.1733V1283.27H70.8239V1316H61.1193V1283.27H48.75ZM90.7808 1316V1275.27H107.764C110.813 1275.27 113.365 1275.7 115.42 1276.57C117.488 1277.43 119.039 1278.63 120.073 1280.18C121.121 1281.74 121.644 1283.53 121.644 1285.57C121.644 1287.12 121.32 1288.51 120.67 1289.73C120.02 1290.94 119.126 1291.94 117.985 1292.73C116.845 1293.53 115.526 1294.09 114.028 1294.4V1294.8C115.672 1294.88 117.19 1295.32 118.582 1296.13C119.987 1296.94 121.114 1298.07 121.963 1299.51C122.811 1300.95 123.235 1302.64 123.235 1304.61C123.235 1306.79 122.679 1308.75 121.565 1310.47C120.451 1312.18 118.84 1313.53 116.733 1314.53C114.625 1315.51 112.066 1316 109.056 1316H90.7808ZM100.625 1308.07H106.71C108.844 1308.07 110.415 1307.66 111.423 1306.85C112.444 1306.04 112.954 1304.92 112.954 1303.47C112.954 1302.42 112.709 1301.52 112.218 1300.77C111.728 1300 111.032 1299.41 110.13 1299C109.229 1298.57 108.148 1298.36 106.889 1298.36H100.625V1308.07ZM100.625 1292.02H106.073C107.147 1292.02 108.102 1291.84 108.937 1291.48C109.772 1291.12 110.422 1290.61 110.886 1289.93C111.363 1289.25 111.602 1288.44 111.602 1287.48C111.602 1286.12 111.118 1285.04 110.15 1284.26C109.182 1283.48 107.876 1283.09 106.233 1283.09H100.625V1292.02ZM130.768 1316V1275.27H147.592C150.641 1275.27 153.273 1275.82 155.487 1276.92C157.714 1278.01 159.431 1279.57 160.638 1281.62C161.844 1283.64 162.447 1286.05 162.447 1288.84C162.447 1291.66 161.831 1294.06 160.598 1296.03C159.365 1298 157.615 1299.49 155.348 1300.53C153.081 1301.55 150.396 1302.06 147.294 1302.06H136.655V1294.3H145.464C146.949 1294.3 148.189 1294.11 149.183 1293.73C150.191 1293.33 150.953 1292.73 151.47 1291.94C151.987 1291.13 152.246 1290.09 152.246 1288.84C152.246 1287.58 151.987 1286.54 151.47 1285.71C150.953 1284.88 150.191 1284.25 149.183 1283.84C148.176 1283.42 146.936 1283.21 145.464 1283.21H140.612V1316H130.768ZM153.697 1297.39L163.839 1316H153.101L143.158 1297.39H153.697ZM205.026 1291.9V1299.38H186.174V1291.9H205.026ZM238.333 1316H227.753L241.495 1275.27H254.6L268.341 1316H257.762L248.196 1285.53H247.878L238.333 1316ZM236.921 1299.97H259.034V1307.45H236.921V1299.97ZM287.851 1328.09C284.947 1328.09 282.462 1327.69 280.393 1326.88C278.325 1326.07 276.701 1324.96 275.521 1323.56C274.341 1322.15 273.632 1320.56 273.393 1318.78L282.601 1318.27C282.773 1318.89 283.091 1319.43 283.555 1319.9C284.033 1320.36 284.649 1320.72 285.405 1320.97C286.174 1321.22 287.075 1321.35 288.109 1321.35C289.74 1321.35 291.086 1320.95 292.146 1320.16C293.22 1319.37 293.757 1318 293.757 1316.04V1310.67H293.419C293.034 1311.61 292.451 1312.45 291.669 1313.2C290.887 1313.94 289.912 1314.52 288.746 1314.95C287.592 1315.37 286.266 1315.58 284.768 1315.58C282.541 1315.58 280.499 1315.07 278.643 1314.03C276.801 1312.98 275.322 1311.37 274.209 1309.18C273.108 1306.98 272.558 1304.15 272.558 1300.69C272.558 1297.12 273.128 1294.18 274.268 1291.88C275.408 1289.56 276.9 1287.84 278.743 1286.73C280.599 1285.61 282.594 1285.06 284.729 1285.06C286.333 1285.06 287.705 1285.34 288.845 1285.89C289.998 1286.44 290.946 1287.14 291.689 1288C292.431 1288.86 292.995 1289.76 293.379 1290.68H293.658V1285.45H303.342V1316.12C303.342 1318.7 302.693 1320.89 301.393 1322.66C300.094 1324.44 298.278 1325.78 295.944 1326.7C293.611 1327.63 290.913 1328.09 287.851 1328.09ZM288.149 1308.5C289.329 1308.5 290.337 1308.19 291.172 1307.57C292.007 1306.95 292.65 1306.05 293.101 1304.88C293.551 1303.72 293.777 1302.32 293.777 1300.69C293.777 1299.03 293.551 1297.61 293.101 1296.41C292.663 1295.21 292.02 1294.28 291.172 1293.63C290.337 1292.98 289.329 1292.65 288.149 1292.65C286.943 1292.65 285.922 1292.98 285.087 1293.65C284.251 1294.31 283.615 1295.25 283.177 1296.45C282.753 1297.64 282.541 1299.06 282.541 1300.69C282.541 1302.32 282.76 1303.72 283.197 1304.88C283.635 1306.05 284.265 1306.95 285.087 1307.57C285.922 1308.19 286.943 1308.5 288.149 1308.5ZM326.62 1316.58C323.425 1316.58 320.668 1315.95 318.347 1314.69C316.041 1313.41 314.264 1311.61 313.018 1309.26C311.785 1306.9 311.168 1304.09 311.168 1300.85C311.168 1297.69 311.792 1294.93 313.038 1292.57C314.284 1290.2 316.041 1288.36 318.308 1287.05C320.575 1285.72 323.246 1285.06 326.322 1285.06C328.496 1285.06 330.485 1285.39 332.288 1286.07C334.091 1286.75 335.649 1287.75 336.961 1289.07C338.274 1290.4 339.294 1292.04 340.024 1293.99C340.753 1295.92 341.117 1298.14 341.117 1300.65V1303.07H314.569V1297.43H332.069C332.056 1296.39 331.811 1295.47 331.333 1294.66C330.856 1293.85 330.2 1293.22 329.364 1292.77C328.543 1292.31 327.595 1292.08 326.521 1292.08C325.434 1292.08 324.459 1292.32 323.597 1292.81C322.736 1293.29 322.053 1293.95 321.549 1294.78C321.045 1295.6 320.78 1296.54 320.754 1297.59V1303.33C320.754 1304.58 320.999 1305.67 321.489 1306.61C321.98 1307.54 322.676 1308.26 323.578 1308.78C324.479 1309.3 325.553 1309.56 326.799 1309.56C327.661 1309.56 328.443 1309.44 329.146 1309.2C329.848 1308.96 330.452 1308.61 330.955 1308.14C331.459 1307.68 331.837 1307.11 332.089 1306.43L341.018 1306.69C340.647 1308.7 339.831 1310.44 338.572 1311.92C337.326 1313.39 335.688 1314.54 333.66 1315.36C331.632 1316.17 329.285 1316.58 326.62 1316.58ZM358.608 1298.58V1316H348.884V1285.45H358.131V1291.06H358.469C359.145 1289.19 360.299 1287.73 361.929 1286.67C363.56 1285.59 365.502 1285.06 367.756 1285.06C369.904 1285.06 371.767 1285.54 373.344 1286.51C374.935 1287.46 376.168 1288.8 377.043 1290.53C377.931 1292.24 378.369 1294.24 378.356 1296.53V1316H368.631V1298.44C368.644 1296.74 368.214 1295.42 367.339 1294.46C366.477 1293.51 365.277 1293.03 363.739 1293.03C362.718 1293.03 361.817 1293.26 361.035 1293.71C360.266 1294.14 359.669 1294.77 359.245 1295.6C358.834 1296.42 358.622 1297.41 358.608 1298.58ZM401.435 1316.58C398.213 1316.58 395.449 1315.91 393.142 1314.59C390.848 1313.26 389.085 1311.42 387.852 1309.06C386.619 1306.69 386.003 1303.94 386.003 1300.83C386.003 1297.7 386.619 1294.95 387.852 1292.59C389.098 1290.22 390.868 1288.37 393.162 1287.05C395.469 1285.72 398.22 1285.06 401.415 1285.06C404.239 1285.06 406.698 1285.57 408.793 1286.59C410.901 1287.61 412.545 1289.05 413.724 1290.92C414.918 1292.78 415.547 1294.96 415.614 1297.47H406.526C406.34 1295.9 405.81 1294.68 404.935 1293.79C404.073 1292.9 402.946 1292.45 401.554 1292.45C400.427 1292.45 399.439 1292.77 398.591 1293.41C397.742 1294.03 397.08 1294.96 396.602 1296.19C396.138 1297.41 395.906 1298.92 395.906 1300.73C395.906 1302.53 396.138 1304.05 396.602 1305.3C397.08 1306.53 397.742 1307.47 398.591 1308.11C399.439 1308.73 400.427 1309.04 401.554 1309.04C402.455 1309.04 403.251 1308.85 403.94 1308.46C404.643 1308.08 405.22 1307.52 405.67 1306.77C406.121 1306.02 406.406 1305.1 406.526 1304.03H415.614C415.521 1306.55 414.891 1308.75 413.724 1310.63C412.571 1312.51 410.947 1313.98 408.852 1315.03C406.771 1316.06 404.298 1316.58 401.435 1316.58ZM429.336 1327.45C428.17 1327.45 427.069 1327.36 426.035 1327.18C425.001 1327 424.113 1326.77 423.37 1326.48L425.518 1319.42C426.473 1319.74 427.334 1319.92 428.103 1319.98C428.885 1320.03 429.555 1319.9 430.112 1319.6C430.682 1319.31 431.119 1318.78 431.424 1318.03L431.802 1317.11L420.944 1285.45H431.126L436.754 1307.25H437.072L442.779 1285.45H453.021L441.507 1318.92C440.95 1320.59 440.161 1322.07 439.14 1323.34C438.133 1324.62 436.827 1325.63 435.223 1326.36C433.632 1327.09 431.67 1327.45 429.336 1327.45Z" fill="black"/>
</g>
</g>
<defs>
<filter id="filter0_d_59_101" x="1521" y="24" width="807" height="807" filterUnits="userSpaceOnUse" color-interpolation-filters="sRGB">
<feFlood flood-opacity="0" result="BackgroundImageFix"/>
<feColorMatrix in="SourceAlpha" type="matrix" values="0 0 0 0 0 0 0 0 0 0 0 0 0 0 0 0 0 0 127 0" result="hardAlpha"/>
<feOffset dy="150"/>
<feGaussianBlur stdDeviation="125"/>
<feComposite in2="hardAlpha" operator="out"/>
<feColorMatrix type="matrix" values="0 0 0 0 0.983333 0 0 0 0 0.882345 0 0 0 0 0.471181 0 0 0 1 0"/>
<feBlend mode="normal" in2="BackgroundImageFix" result="effect1_dropShadow_59_101"/>
<feBlend mode="normal" in="SourceGraphic" in2="effect1_dropShadow_59_101" result="shape"/>
</filter>
<clipPath id="clip0_59_101">
<rect width="4381" height="1540" fill="white"/>
</clipPath>
</defs>
</svg>
